<?xml version="1.0" encoding="utf-8"?>
<!-- Generator: Adobe Illustrator 16.0.0, SVG Export Plug-In . SVG Version: 6.00 Build 0)  -->
<!DOCTYPE svg PUBLIC "-//W3C//DTD SVG 1.1//EN" "http://www.w3.org/Graphics/SVG/1.1/DTD/svg11.dtd">
<svg version="1.1" id="图层_1" xmlns="http://www.w3.org/2000/svg" xmlns:xlink="http://www.w3.org/1999/xlink" x="0px" y="0px"
	 width="860px" height="536.102px" viewBox="0 0 860 536.102" enable-background="new 0 0 860 536.102" xml:space="preserve">
<path id="Combined-Shape-Copy_1_" opacity="0.5822" fill="#FFFFFF" stroke="#999999" stroke-width="0.9315" stroke-dasharray="1.863" enable-background="new    " d="
	M717.748,428.361l-439.402-58.096l-48.581,47.492v34.986l441.405,57.854l46.577-45.525L717.748,428.361L717.748,428.361z"/>
<path id="Combined-Shape-Copy" opacity="0.5822" fill="#FFFFFF" stroke="#999999" stroke-width="0.9315" stroke-dasharray="1.863" enable-background="new    " d="
	M837.556,184.458L185.956,98.5L19,261.786v34.985l653.604,85.721l164.952-161.321V184.458z"/>
<path id="Combined-Shape-Copy-6" opacity="0.5822" fill="#EFEFEF" stroke="#999999" stroke-width="0.9315" stroke-dasharray="1.863" enable-background="new    " d="
	M384.554,149.417L178.693,122.61L68.399,230.494v45.62l210.562,27.975l105.594-102.647L384.554,149.417L384.554,149.417z"/>
<g id="灰色块_1_" transform="translate(53.000000, 565.000000)">
	<polygon id="Rectangle-4_2_" fill="#DDDDDE" stroke="#CDCDCD" stroke-width="0.8" points="122.667,-430.538 203.456,-420.181 
		203.456,-396.164 200.36,-393.603 119.383,-404.159 119.383,-427.462 	"/>
	<path id="Line-2_1_" fill="none" stroke="#CDCDCD" stroke-width="0.8" stroke-linecap="square" d="M202.963-419.714l-2.508,2.555"
		/>
	<g id="Rectangle-4_1_">
		<g>
			<polygon id="path-3_1_" fill="#F6F6F7" points="118.956,-427.659 200.456,-417.081 200.456,-393.159 118.956,-403.737 			"/>
		</g>
		<path fill="none" stroke="#CDCDCD" stroke-width="0.8" d="M119.355-427.203v23.115l80.7,10.473v-23.115L119.355-427.203z"/>
	</g>
</g>
<g id="灰色块_2_" transform="translate(53.000000, 565.000000)">
	<polygon id="Rectangle-4_4_" fill="#DDDDDE" stroke="#CDCDCD" stroke-width="0.8" points="238.691,-414.305 319.479,-403.947 
		319.479,-379.931 316.384,-377.369 235.407,-387.926 235.407,-411.229 	"/>
	<path id="Line-2_2_" fill="none" stroke="#CDCDCD" stroke-width="0.8" stroke-linecap="square" d="M318.987-403.48l-2.509,2.555"/>
	<g id="Rectangle-4_3_">
		<g>
			<polygon id="path-3_2_" fill="#F6F6F7" points="234.979,-411.426 316.479,-400.848 316.479,-376.926 234.979,-387.504 			"/>
		</g>
		<path fill="none" stroke="#CDCDCD" stroke-width="0.8" d="M235.379-410.97v23.115l80.7,10.473v-23.115L235.379-410.97z"/>
	</g>
</g>
<g>
	<path fill="#333333" d="M305.51,171.875l-0.594-0.784c1.503-0.708,2.521-1.697,3.052-2.966c0.169-0.454,0.312-0.947,0.422-1.48
		l-3.72-0.455l-0.381,8.211l-0.953-0.116l0.42-9.05l4.777,0.583c0.101-0.647,0.166-1.298,0.195-1.953l0.953,0.116
		c-0.027,0.607-0.089,1.259-0.183,1.955l4.581,0.56l-0.358,7.72c-0.038,0.807-0.478,1.159-1.321,1.056l-2.05-0.25l-0.221-0.896
		l1.995,0.292c0.418,0.051,0.636-0.12,0.654-0.511l0.311-6.688l-3.733-0.456c-0.092,0.495-0.194,0.912-0.307,1.252
		c1.277,1.314,2.363,2.612,3.258,3.894l-0.735,0.574c-0.693-1.098-1.639-2.31-2.838-3.638
		C308.141,170.14,307.065,171.15,305.51,171.875z"/>
	<path fill="#333333" d="M322.259,169.353c0.997,1.335,2.771,2.617,5.321,3.844l-0.542,0.645c-0.513-0.255-0.987-0.506-1.422-0.752
		l-0.183,3.92l-0.899-0.11l0.022-0.503l-5.834-0.713l-0.022,0.503l-0.914-0.111l0.185-3.967c-0.479,0.15-1.029,0.296-1.647,0.437
		l-0.464-0.768c2.432-0.522,4.325-1.36,5.684-2.513L322.259,169.353z M320.984,168.233c-1.154,0.751-2.554,1.364-4.193,1.838
		l-0.531-0.74c1.622-0.429,2.996-0.993,4.122-1.691L320.984,168.233z M322.214,165.49c0.127,0.289,0.259,0.663,0.395,1.121
		l4.738,0.579l-0.099,2.133l-0.914-0.112l0.062-1.331l-8.849-1.081l-0.065,1.391l-0.913-0.111l0.102-2.193l4.959,0.606
		c-0.133-0.33-0.276-0.653-0.427-0.969L322.214,165.49z M325.475,173.013c-1.559-0.915-2.765-1.897-3.617-2.95
		c-1.082,0.873-2.368,1.551-3.861,2.036L325.475,173.013z M318.759,174.893l5.834,0.713l0.089-1.918l-5.834-0.713L318.759,174.893z
		 M323.475,168.031c1.558,0.954,2.846,1.859,3.865,2.714l-0.68,0.508c-0.907-0.826-2.178-1.745-3.811-2.756L323.475,168.031z"/>
	<path fill="#333333" d="M331.064,168.259c-0.354,0.455-0.722,0.844-1.104,1.167l-0.801-0.58c0.809-0.641,1.422-1.401,1.839-2.283
		l0.893,0.29l-0.36,0.703l3.498,0.427l-0.035,0.755l-2.192-0.268c0.295,0.422,0.52,0.794,0.67,1.118l-0.875,0.194
		c-0.206-0.467-0.468-0.945-0.787-1.434L331.064,168.259z M340.489,171.085l-0.102,2.169l-0.914-0.111l0.066-1.426l-9.241-1.129
		l-0.066,1.426l-0.914-0.112l0.102-2.169l5.168,0.631c-0.117-0.303-0.24-0.58-0.369-0.828l0.92-0.032l-0.075-0.058
		c0.65-0.635,1.14-1.368,1.467-2.196l0.893,0.29c-0.118,0.275-0.225,0.507-0.321,0.696l3.772,0.461l-0.035,0.755l-2.323-0.284
		c0.271,0.387,0.475,0.725,0.609,1.014l-0.85,0.186c-0.214-0.46-0.47-0.901-0.765-1.323l-0.823-0.101
		c-0.226,0.342-0.509,0.693-0.85,1.053l-0.688-0.481c0.151,0.34,0.276,0.661,0.375,0.962L340.489,171.085z M338.621,172.317
		l-0.109,2.349l-6.513-0.796l-0.039,0.828l7.114,0.869l-0.144,3.081l-0.927-0.113l0.023-0.504l-6.188-0.756l-0.021,0.492
		l-0.94-0.115l0.29-6.245L338.621,172.317z M331.876,176.508l6.187,0.756l0.053-1.115l-6.188-0.756L331.876,176.508z
		 M332.031,173.175l5.6,0.684l0.044-0.959l-5.6-0.684L332.031,173.175z"/>
	<path fill="#333333" d="M342.275,172.462l1.397,0.17l0.131-2.829l-1.58-0.193l0.038-0.816l4.111,0.502l-0.038,0.816l-1.566-0.191
		l-0.131,2.829l1.423,0.174l-0.039,0.839l-1.423-0.174l-0.125,2.686c0.53-0.104,1.062-0.232,1.593-0.384l-0.038,0.827
		c-1.215,0.334-2.583,0.584-4.104,0.752l-0.196-0.855c0.554-0.037,1.143-0.093,1.768-0.17l0.138-2.973l-1.396-0.17L342.275,172.462z
		 M347.159,169.068l6.277,0.767l-0.258,5.55l-2.662-0.325l-0.067,1.462l2.872,0.351l-0.038,0.803l-2.872-0.351l-0.071,1.522
		l3.289,0.402l-0.038,0.827l-7.518-0.918l0.038-0.827l3.289,0.402l0.07-1.522l-2.897-0.354l0.037-0.803l2.897,0.354l0.067-1.462
		l-2.677-0.327L347.159,169.068z M349.613,174.178l0.074-1.631l-1.774-0.217l-0.075,1.631L349.613,174.178z M347.948,171.588
		l1.774,0.217l0.076-1.643l-1.775-0.217L347.948,171.588z M352.315,174.508l0.075-1.631l-1.762-0.215l-0.076,1.631L352.315,174.508z
		 M350.739,170.277l-0.076,1.643l1.762,0.215l0.076-1.643L350.739,170.277z"/>
</g>
<g id="灰色块_3_" transform="translate(53.000000, 565.000000)">
	<polygon id="Rectangle-4_6_" fill="#DDDDDE" stroke="#CDCDCD" stroke-width="0.8" points="88.975,-396.769 169.763,-386.411 
		169.763,-362.395 166.667,-359.833 85.69,-370.39 85.69,-393.692 	"/>
	<path id="Line-2_3_" fill="none" stroke="#CDCDCD" stroke-width="0.8" stroke-linecap="square" d="M169.271-385.944l-2.508,2.555"
		/>
	<g id="Rectangle-4_5_">
		<g>
			<polygon id="path-3_3_" fill="#F6F6F7" points="85.263,-393.89 166.763,-383.312 166.763,-359.39 85.263,-369.968 			"/>
		</g>
		<path fill="none" stroke="#CDCDCD" stroke-width="0.8" d="M85.662-393.434v23.115l80.7,10.473v-23.115L85.662-393.434z"/>
	</g>
</g>
<g>
	<path fill="#333333" d="M156.002,187.3c-0.473,0.384-1.048,0.796-1.724,1.236l-0.246-0.935c1.822-1.168,3.055-2.371,3.699-3.611
		l-3.211-0.392l0.039-0.827l2.037,0.249c-0.193-0.554-0.43-1.105-0.711-1.654l0.912-0.13c0.277,0.621,0.5,1.207,0.667,1.757
		l-0.385,0.085l1.632,0.199l-0.034,0.731c-0.379,0.83-0.941,1.629-1.687,2.397c0.695,0.495,1.321,1.038,1.88,1.628l-0.57,0.678
		c-0.431-0.511-0.887-0.977-1.365-1.396l-0.235,5.071l-0.927-0.113L156.002,187.3z M161.938,184.143l0.914,0.112l-0.106,2.29
		c-0.135,1.784-0.541,3.173-1.217,4.167c-0.682,0.93-1.732,1.581-3.149,1.954l-0.475-0.817c1.401-0.383,2.387-0.994,2.96-1.833
		c0.548-0.89,0.871-2.083,0.967-3.583L161.938,184.143z M165.278,182.864l-0.308,6.629l-0.953-0.117l0.27-5.802l-3.668-0.448
		l-0.269,5.802l-0.927-0.113l0.308-6.629L165.278,182.864z M163.272,192.998c-0.714-0.087-1.055-0.478-1.022-1.173l0.124-2.673
		l0.914,0.112l-0.116,2.493c-0.013,0.287,0.124,0.449,0.411,0.484l0.81,0.099c0.183,0.022,0.32-0.025,0.414-0.143
		c0.12-0.146,0.215-0.588,0.285-1.327l0.863,0.358c-0.125,0.982-0.296,1.567-0.515,1.758c-0.209,0.159-0.514,0.214-0.913,0.165
		L163.272,192.998z"/>
	<path fill="#333333" d="M172.792,188.965c-0.699,2.607-2.451,4.161-5.257,4.663l-0.499-0.845c2.662-0.423,4.31-1.784,4.941-4.086
		L172.792,188.965z M169.051,188.689c-0.375,1.104-0.816,1.917-1.321,2.442l-0.666-0.636c0.506-0.541,0.899-1.277,1.179-2.207
		L169.051,188.689z M170.078,182.968l0.914,0.112l-0.066,1.414l1.775,0.217l-0.038,0.815l-1.775-0.217l-0.065,1.391l1.932,0.236
		l-0.039,0.839l-5.508-0.673l0.039-0.839l0.757,0.092l0.123-2.649l0.9,0.11l-0.123,2.649l1.006,0.123L170.078,182.968z
		 M169.823,187.891l0.9,0.11l-0.145,3.128l-0.9-0.11L169.823,187.891z M175.512,187.791l0.913,0.112l-0.098,2.122
		c-0.085,1.26-0.424,2.247-1.018,2.962c-0.572,0.646-1.477,1.089-2.713,1.332l-0.488-0.807c1.185-0.241,2.017-0.634,2.497-1.178
		c0.465-0.602,0.734-1.409,0.808-2.42L175.512,187.791z M173.109,183.82l6.135,0.75l-0.038,0.815l-2.611-0.319
		c-0.055,0.435-0.127,0.868-0.218,1.299l2.297,0.28l-0.264,5.694l-0.914-0.111l0.227-4.891l-3.381-0.413l-0.227,4.891l-0.9-0.11
		l0.264-5.694l1.919,0.234c0.088-0.383,0.165-0.816,0.231-1.298l-2.559-0.313L173.109,183.82z M176.764,192.199
		c0.881,0.815,1.603,1.583,2.164,2.302l-0.722,0.551c-0.517-0.739-1.215-1.53-2.095-2.378L176.764,192.199z"/>
	<path fill="#333333" d="M180.781,192.461l0.034-0.743l10.089,1.233c-0.068,1.471-0.259,2.399-0.575,2.786
		c-0.314,0.372-0.859,0.51-1.634,0.416c-0.583-0.071-1.056-0.141-1.42-0.21l-0.21-0.845c0.59,0.12,1.128,0.21,1.615,0.27
		c0.593,0.048,0.938-0.115,1.034-0.489c0.108-0.445,0.172-0.879,0.192-1.302l-4.085-0.499c-0.678,1.396-2.478,2.108-5.403,2.137
		l-0.355-0.827c2.606,0.028,4.204-0.447,4.792-1.428L180.781,192.461z M184.504,184.646c0.168,0.334,0.347,0.726,0.536,1.175
		l2.806,0.343c0.277-0.311,0.494-0.655,0.652-1.029l0.934,0.235c-0.173,0.333-0.401,0.634-0.685,0.905l3.407,0.416l-0.036,0.767
		l-11.564-1.413l0.036-0.767l3.537,0.432c-0.167-0.366-0.356-0.71-0.569-1.034L184.504,184.646z M182.299,190.031l-0.063,1.342
		l-0.9-0.11l0.204-4.388l4.855,0.593l-0.164,3.524c-0.026,0.567-0.439,0.802-1.24,0.704l-0.979-0.12l-0.177-0.708l0.938,0.139
		c0.366,0.044,0.554-0.057,0.566-0.305l0.014-0.299L182.299,190.031z M182.354,188.832l-0.028,0.611l3.054,0.373l0.028-0.611
		L182.354,188.832z M185.435,188.629l0.029-0.624l-3.054-0.373l-0.029,0.624L185.435,188.629z M187.707,187.773l0.875,0.107
		l-0.138,2.961l-0.875-0.107L187.707,187.773z M188.112,192.042l-0.147-0.777c0.66,0.113,1.142,0.188,1.447,0.225
		c0.365,0.044,0.558-0.129,0.576-0.521l0.149-3.213l0.914,0.112l-0.159,3.416c-0.034,0.728-0.442,1.043-1.226,0.948L188.112,192.042
		z"/>
	<path fill="#333333" d="M195.924,189.465l0.914,0.111l-0.083,1.786l1.449,0.177l-0.036,0.779l-1.449-0.177l-0.077,1.654
		c0.597-0.039,1.15-0.08,1.66-0.123l-0.037,0.791c-0.625,0.068-1.178,0.118-1.661,0.147l-0.123,2.649l-0.914-0.111l0.115-2.481
		c-0.999,0.031-1.813,0.044-2.443,0.04l-0.079-0.842c0.726,0.009,1.58,0,2.561-0.024l0.084-1.81l-2.102-0.257l-0.174-0.768
		c0.371-0.646,0.738-1.49,1.102-2.53l-1.136-0.139l0.038-0.815l1.345,0.164c0.072-0.224,0.224-0.772,0.457-1.644l0.882,0.229
		c-0.117,0.443-0.259,0.953-0.425,1.527l2.741,0.334l-0.038,0.815l-2.963-0.362c-0.323,0.933-0.673,1.767-1.049,2.5l1.358,0.166
		L195.924,189.465z M199.369,191.031l-0.939-0.115l0.036-0.767l6.748,0.824l-0.036,0.767l-0.965-0.118l-0.198,4.268l1.104-0.034
		l-0.035,0.743l-1.104,0.046l-0.071,1.535l-0.901-0.11l0.066-1.415c-1.454,0.023-3.154-0.008-5.101-0.093l-0.082-0.782l1.257,0.058
		L199.369,191.031z M199.45,187.014l5.168,0.631l-0.116,2.506l-5.168-0.631L199.45,187.014z M200.038,195.862
		c1.241,0.031,2.264,0.043,3.069,0.037l0.041-0.875l-3.054-0.373L200.038,195.862z M200.126,193.944l3.054,0.373l0.048-1.043
		l-3.054-0.373L200.126,193.944z M203.311,191.512l-3.054-0.373l-0.049,1.055l3.054,0.373L203.311,191.512z M203.633,189.382
		l0.053-1.15l-3.368-0.412l-0.053,1.15L203.633,189.382z"/>
</g>
<g id="灰色块_4_" transform="translate(53.000000, 565.000000)">
	<polygon id="Rectangle-4_8_" fill="#DDDDDE" stroke="#CDCDCD" stroke-width="0.8" points="205.941,-381.762 286.729,-371.405 
		286.729,-347.388 283.634,-344.827 202.657,-355.383 202.657,-378.686 	"/>
	<path id="Line-2_4_" fill="none" stroke="#CDCDCD" stroke-width="0.8" stroke-linecap="square" d="M286.237-370.938l-2.509,2.555"
		/>
	<g id="Rectangle-4_7_">
		<g>
			<polygon id="path-3_5_" fill="#F6F6F7" points="202.229,-378.883 283.729,-368.305 283.729,-344.383 202.229,-354.961 			"/>
		</g>
		<path fill="none" stroke="#CDCDCD" stroke-width="0.8" d="M202.629-378.427v23.115l80.7,10.473v-23.115L202.629-378.427z"/>
	</g>
</g>
<g>
	<path fill="#333333" d="M272.046,201.87c-0.473,0.384-1.048,0.796-1.724,1.236l-0.246-0.935c1.822-1.168,3.055-2.371,3.699-3.611
		l-3.211-0.392l0.039-0.827l2.037,0.249c-0.193-0.554-0.43-1.105-0.711-1.654l0.912-0.13c0.277,0.621,0.5,1.207,0.667,1.757
		l-0.385,0.085l1.632,0.199l-0.034,0.731c-0.379,0.83-0.941,1.629-1.687,2.397c0.695,0.495,1.321,1.038,1.88,1.628l-0.57,0.678
		c-0.431-0.511-0.887-0.977-1.365-1.396l-0.235,5.071l-0.927-0.113L272.046,201.87z M277.982,198.713l0.914,0.112l-0.106,2.29
		c-0.135,1.784-0.541,3.173-1.217,4.167c-0.682,0.93-1.732,1.581-3.149,1.954l-0.475-0.817c1.401-0.383,2.387-0.994,2.96-1.833
		c0.548-0.89,0.871-2.083,0.967-3.583L277.982,198.713z M281.322,197.434l-0.308,6.629l-0.953-0.117l0.27-5.802l-3.668-0.448
		l-0.269,5.802l-0.927-0.113l0.308-6.629L281.322,197.434z M279.317,207.568c-0.714-0.087-1.055-0.478-1.022-1.173l0.124-2.673
		l0.914,0.112l-0.116,2.493c-0.013,0.287,0.124,0.449,0.411,0.484l0.81,0.099c0.183,0.022,0.32-0.025,0.414-0.143
		c0.12-0.146,0.215-0.588,0.285-1.327l0.863,0.358c-0.125,0.982-0.296,1.567-0.515,1.758c-0.209,0.159-0.514,0.214-0.913,0.165
		L279.317,207.568z"/>
	<path fill="#333333" d="M288.836,203.535c-0.699,2.607-2.451,4.161-5.257,4.663l-0.499-0.845c2.662-0.423,4.31-1.784,4.941-4.086
		L288.836,203.535z M285.095,203.259c-0.375,1.104-0.816,1.917-1.321,2.442l-0.666-0.636c0.506-0.541,0.899-1.277,1.179-2.207
		L285.095,203.259z M286.123,197.538l0.914,0.112l-0.066,1.414l1.775,0.217l-0.038,0.815l-1.775-0.217l-0.065,1.391l1.932,0.236
		l-0.039,0.839l-5.508-0.673l0.039-0.839l0.757,0.092l0.123-2.649l0.9,0.11l-0.123,2.649l1.006,0.123L286.123,197.538z
		 M285.867,202.461l0.9,0.11l-0.145,3.128l-0.9-0.11L285.867,202.461z M291.556,202.36l0.913,0.112l-0.098,2.122
		c-0.085,1.26-0.424,2.247-1.018,2.962c-0.572,0.646-1.477,1.089-2.713,1.332l-0.488-0.807c1.185-0.241,2.017-0.634,2.497-1.178
		c0.465-0.602,0.734-1.409,0.808-2.42L291.556,202.36z M289.154,198.39l6.135,0.75l-0.038,0.815l-2.611-0.319
		c-0.055,0.435-0.127,0.868-0.218,1.299l2.297,0.28l-0.264,5.694l-0.914-0.111l0.227-4.891l-3.381-0.413l-0.227,4.891l-0.9-0.11
		l0.264-5.694l1.919,0.234c0.088-0.383,0.165-0.816,0.231-1.298l-2.559-0.313L289.154,198.39z M292.808,206.769
		c0.881,0.815,1.603,1.583,2.164,2.302l-0.722,0.551c-0.517-0.739-1.215-1.53-2.095-2.378L292.808,206.769z"/>
	<path fill="#333333" d="M307.838,201.107l-0.097,2.098l-0.914-0.112l0.061-1.318l-9.059-1.106l-0.064,1.378l-0.914-0.112l0.1-2.158
		l4.973,0.607c-0.132-0.361-0.253-0.666-0.364-0.912l0.999-0.035c0.085,0.236,0.195,0.591,0.332,1.065L307.838,201.107z
		 M301.633,208.076l-2.896-0.354l-0.033,0.708l-0.914-0.112l0.27-5.814l3.812,0.466l0.056-1.199l0.94,0.115l-0.057,1.199l3.852,0.47
		l-0.269,5.778l-0.914-0.111l0.031-0.672l-2.937-0.359l-0.113,2.434l-0.94-0.115L301.633,208.076z M298.837,205.553l-0.063,1.378
		l2.896,0.354l0.064-1.378L298.837,205.553z M301.834,203.761l-2.896-0.354l-0.064,1.378l2.896,0.354L301.834,203.761z
		 M302.61,207.4l2.937,0.359l0.064-1.379l-2.938-0.358L302.61,207.4z M305.647,205.613l0.063-1.379l-2.937-0.358l-0.064,1.378
		L305.647,205.613z"/>
	<path fill="#333333" d="M311.886,211.74l-0.899-0.11l0.278-6.006c-0.465,1.157-1.06,2.193-1.786,3.109l-0.351-0.935
		c0.979-1.102,1.706-2.432,2.181-3.989l-1.762-0.215l0.038-0.827l1.801,0.22l0.109-2.337l0.9,0.11l-0.108,2.337l1.54,0.188
		l-0.038,0.827l-1.54-0.188l-0.036,0.779c0.563,0.695,1.163,1.521,1.801,2.474l-0.557,0.668c-0.532-0.973-0.962-1.709-1.288-2.208
		L311.886,211.74z M313.561,211.86l-0.474-0.806c3.114-0.552,5.494-2.045,7.139-4.481l0.778,0.482
		c-0.668,0.995-1.451,1.839-2.349,2.533c0.945,0.92,1.711,1.777,2.295,2.571l-0.708,0.541c-0.54-0.813-1.273-1.699-2.2-2.656
		C316.723,210.937,315.229,211.541,313.561,211.86z M314.202,202.294l3.263,0.399c-0.163-0.454-0.353-0.875-0.571-1.263l0.973-0.026
		c0.188,0.441,0.359,0.908,0.513,1.4l2.897,0.354l-0.036,0.779l-3.576-0.437c-0.776,1.087-1.446,1.836-2.008,2.25
		c1.082,0.068,1.906,0.117,2.474,0.146c0.378-0.404,0.699-0.818,0.963-1.244l0.74,0.464c-1.425,2.229-3.415,3.617-5.969,4.165
		l-0.477-0.782c1.6-0.319,2.959-0.964,4.08-1.936c-1.134-0.083-2.109-0.158-2.93-0.226l-0.163-0.731
		c0.053-0.01,0.115-0.026,0.186-0.049c0.528-0.241,1.24-0.966,2.137-2.175l-2.532-0.309L314.202,202.294z"/>
</g>
<g id="灰色块_6_" transform="translate(53.000000, 565.000000)">
	<polygon id="Rectangle-4_12_" fill="#DDDDDE" stroke="#CDCDCD" stroke-width="0.8" points="56.333,-365.029 137.121,-354.672 
		137.121,-330.655 134.025,-328.094 53.048,-338.65 53.048,-361.953 	"/>
	<path id="Line-2_6_" fill="none" stroke="#CDCDCD" stroke-width="0.8" stroke-linecap="square" d="M136.628-354.205l-2.508,2.555"
		/>
	<g id="Rectangle-4_11_">
		<g>
			<polygon id="path-3_6_" fill="#F6F6F7" points="52.621,-362.15 134.121,-351.572 134.121,-327.65 52.621,-338.229 			"/>
		</g>
		<path fill="none" stroke="#CDCDCD" stroke-width="0.8" d="M53.02-361.694v23.115l80.7,10.473v-23.115L53.02-361.694z"/>
	</g>
</g>
<g>
	<path fill="#333333" d="M120.375,219.015l2.31,0.283l0.064-1.378l0.94,0.115l-0.064,1.378l2.258,0.276l-0.038,0.815l-2.258-0.276
		l-0.091,1.966c0.919-0.008,1.773-0.037,2.563-0.085l-0.041,0.875c-1.781,0.104-3.751,0.125-5.91,0.062l-0.088-0.927
		c0.707,0.031,1.551,0.053,2.53,0.068l0.096-2.073l-2.31-0.283L120.375,219.015z M120.7,214.016l2.219,0.271l0.068-1.475l0.94,0.115
		l-0.068,1.475l2.193,0.268l-0.039,0.827l-2.193-0.268l-0.071,1.522l2.428,0.296l-0.039,0.839l-5.887-0.719l0.039-0.839l2.519,0.308
		l0.071-1.522l-2.219-0.271L120.7,214.016z M126.379,215.518l3.576,0.437l0.114-2.446l0.914,0.112l-0.113,2.446l1.148,0.14
		l-0.039,0.827l-1.148-0.14l-0.299,6.449c-0.037,0.791-0.512,1.131-1.426,1.019l-1.619-0.198l-0.17-0.864
		c0.695,0.117,1.194,0.194,1.499,0.231c0.522,0.064,0.792-0.108,0.812-0.516l0.29-6.233l-3.577-0.437L126.379,215.518z
		 M127.454,217.818c0.536,0.894,1.019,1.893,1.449,2.999l-0.788,0.277c-0.42-1.113-0.912-2.132-1.472-3.062L127.454,217.818z"/>
	<path fill="#333333" d="M133.504,214.435l11.617,1.419l-0.039,0.839l-5.234-0.64c-0.119,0.484-0.303,0.976-0.554,1.476l5.012,0.612
		l-0.379,8.175l-0.9-0.11l0.028-0.599l-8.367-1.022l-0.028,0.599l-0.9-0.11l0.379-8.175l4.203,0.513
		c0.251-0.523,0.437-1.015,0.554-1.475l-5.43-0.663L133.504,214.435z M134.724,223.794l1.802,0.22l0.279-6.006l-1.802-0.22
		L134.724,223.794z M137.399,224.122l2.976,0.363l0.071-1.535l-2.976-0.363L137.399,224.122z M137.506,221.832l2.976,0.363
		l0.068-1.462l-2.976-0.363L137.506,221.832z M137.609,219.602l2.976,0.363l0.069-1.486l-2.976-0.363L137.609,219.602z
		 M141.25,224.592l1.841,0.225l0.279-6.006l-1.841-0.225L141.25,224.592z"/>
	<path fill="#333333" d="M147.441,222.153c-0.257,0.258-0.531,0.502-0.822,0.731l-0.507-0.665c0.833-0.598,1.536-1.431,2.111-2.503
		l0.75,0.249c-0.116,0.228-0.277,0.509-0.485,0.845l1.853,0.227c-0.1-0.294-0.226-0.599-0.377-0.915l0.907-0.022
		c0.108,0.295,0.224,0.643,0.345,1.043l2.036,0.249l-0.032,0.695l-2.206-0.27l-0.039,0.839l1.879,0.229l-0.029,0.623l-1.879-0.229
		l-0.038,0.815l1.879,0.229l-0.028,0.612l-1.879-0.229l-0.04,0.863l2.075,0.253l-0.024,0.516c0.62-0.342,1.166-0.79,1.637-1.343
		c-0.199-0.619-0.356-1.281-0.472-1.986c-0.146-0.821-0.232-1.792-0.259-2.913l-7.375-0.901l0.036-0.779l3.289,0.401l0.052-1.127
		l-2.61-0.319l0.036-0.767l2.61,0.319l0.044-0.947l0.914,0.112l-0.044,0.947l2.362,0.289l-0.036,0.767l-2.362-0.289l-0.052,1.127
		l3.12,0.381c-0.009-0.749,0.013-1.702,0.067-2.861l0.9,0.11c-0.049,1.063-0.068,2.018-0.054,2.863l3.367,0.412l-0.036,0.779
		l-3.315-0.405c0.011,1.078,0.074,1.974,0.19,2.687c0.062,0.385,0.143,0.797,0.245,1.235c0.54-0.882,0.977-1.918,1.313-3.106
		l0.794,0.423c-0.466,1.566-1.063,2.836-1.791,3.807c0.046,0.126,0.122,0.313,0.224,0.558c0.303,0.632,0.55,0.959,0.742,0.982
		c0.201,0.017,0.416-0.568,0.646-1.753l0.778,0.493c-0.361,1.539-0.802,2.277-1.324,2.213c-0.435-0.053-0.888-0.474-1.358-1.263
		c-0.122-0.207-0.214-0.392-0.277-0.552c-0.58,0.604-1.216,1.045-1.912,1.321l-0.464-0.731l0.08-0.039l-4.49-0.548l-0.026,0.575
		l-0.835-0.102L147.441,222.153z M148.138,225.24l1.866,0.228l0.04-0.863l-1.866-0.228L148.138,225.24z M150.072,223.993
		l0.038-0.815l-1.866-0.228l-0.038,0.815L150.072,223.993z M150.139,222.555l0.039-0.839l-1.866-0.228l-0.039,0.839L150.139,222.555
		z M156.032,216.934c0.595,0.748,1.034,1.372,1.317,1.873l-0.713,0.371c-0.308-0.552-0.745-1.196-1.314-1.933L156.032,216.934z"/>
	<path fill="#333333" d="M170.741,219.032l-0.486,10.465l-0.914-0.111l0.022-0.492l-8.823-1.078l-0.022,0.492l-0.914-0.111
		l0.486-10.465L170.741,219.032z M160.576,227.049l8.823,1.078l0.392-8.439l-8.823-1.078L160.576,227.049z M164.945,219.457
		c-0.134,0.257-0.257,0.463-0.369,0.618l3.446,0.421l-0.028,0.599c-0.404,0.601-0.983,1.093-1.736,1.476
		c0.895,0.511,1.876,0.949,2.945,1.313l-0.526,0.586c-1.256-0.467-2.326-0.987-3.209-1.562c-1.033,0.373-2.295,0.616-3.788,0.73
		l-0.386-0.746c1.35-0.052,2.496-0.222,3.437-0.508c-0.507-0.383-0.932-0.773-1.271-1.168c-0.407,0.288-0.866,0.545-1.375,0.772
		l-0.493-0.687c1.222-0.501,2.063-1.183,2.523-2.042L164.945,219.457z M162.771,225.015c1.709,0.506,3.355,1.137,4.939,1.893
		l-0.346,0.657c-1.591-0.773-3.255-1.422-4.99-1.948L162.771,225.015z M164.207,223.501c0.978,0.425,1.896,0.916,2.753,1.47
		l-0.472,0.569c-0.857-0.595-1.77-1.101-2.739-1.516L164.207,223.501z M167.051,221.029l-2.962-0.362
		c-0.055,0.041-0.096,0.084-0.125,0.129c0.434,0.455,0.947,0.892,1.541,1.309C166.166,221.825,166.681,221.466,167.051,221.029z"/>
</g>
<g id="灰色块_7_" transform="translate(53.000000, 565.000000)">
	<polygon id="Rectangle-4_14_" fill="#DDDDDE" stroke="#CDCDCD" stroke-width="0.8" points="172.917,-349.444 253.706,-339.086 
		253.706,-315.07 250.61,-312.508 169.633,-323.065 169.633,-346.368 	"/>
	<path id="Line-2_7_" fill="none" stroke="#CDCDCD" stroke-width="0.8" stroke-linecap="square" d="M253.213-338.62l-2.508,2.555"/>
	<g id="Rectangle-4_13_">
		<g>
			<polygon id="path-3_7_" fill="#F6F6F7" points="169.206,-346.565 250.706,-335.987 250.706,-312.065 169.206,-322.643 			"/>
		</g>
		<path fill="none" stroke="#CDCDCD" stroke-width="0.8" d="M169.605-346.109v23.115l80.7,10.473v-23.115L169.605-346.109z"/>
	</g>
</g>
<g>
	<path fill="#333333" d="M240.864,233.278l-0.292,0.627l2.715,0.332l-0.034,0.731c-0.324,0.748-0.83,1.369-1.517,1.864
		c0.606,0.315,1.182,0.651,1.725,1.006l-0.542,0.633c-0.584-0.401-1.232-0.794-1.94-1.177c-0.904,0.444-2.012,0.754-3.325,0.932
		l-0.423-0.798c1.101-0.131,2.029-0.348,2.787-0.648l-1.783-0.893c0.391-0.507,0.709-0.962,0.956-1.366l-1.527-0.187l0.036-0.779
		l1.918,0.234c0.243-0.533,0.355-0.772,0.335-0.718L240.864,233.278z M237.926,229.544l2.546,0.311l0.106-2.29l0.874,0.107
		l-0.106,2.29l2.375,0.29l-0.035,0.755l-2.375-0.29l-0.006,0.132c0.698,0.415,1.403,0.871,2.115,1.368l-0.514,0.612
		c-0.631-0.559-1.174-1.012-1.631-1.356l-0.072,1.558l-0.874-0.107l0.106-2.277c-0.47,0.883-1.287,1.607-2.451,2.172l-0.424-0.751
		c1.035-0.419,1.763-0.934,2.185-1.542l-1.854-0.227L237.926,229.544z M239.013,227.628c0.316,0.528,0.573,1.054,0.767,1.576
		l-0.746,0.223c-0.243-0.601-0.516-1.152-0.816-1.655L239.013,227.628z M242.363,234.907l-2.206-0.27
		c-0.237,0.382-0.489,0.732-0.757,1.053c0.514,0.231,0.998,0.459,1.451,0.684C241.527,235.967,242.031,235.478,242.363,234.907z
		 M243.688,228.451c-0.295,0.511-0.654,0.989-1.078,1.436l-0.688-0.434c0.443-0.492,0.789-0.968,1.038-1.428L243.688,228.451z
		 M244.907,232.699c-0.25,0.5-0.53,0.96-0.838,1.381l-0.557-0.731c0.836-1.255,1.438-3.002,1.805-5.24l0.907,0.255
		c-0.084,0.488-0.206,1.048-0.367,1.679l3.446,0.421l-0.038,0.827l-0.849-0.104c-0.145,1.992-0.612,3.655-1.4,4.989
		c0.639,1.139,1.405,2.049,2.301,2.729l-0.569,0.666c-0.869-0.686-1.612-1.567-2.227-2.647c-0.68,0.881-1.526,1.586-2.54,2.113
		l-0.462-0.792c1.048-0.523,1.892-1.259,2.531-2.21C245.583,235.028,245.201,233.916,244.907,232.699z M245.624,230.845
		c-0.101,0.277-0.171,0.481-0.212,0.614c0.259,1.397,0.63,2.644,1.112,3.74c0.562-1.153,0.905-2.526,1.032-4.118L245.624,230.845z"
		/>
	<path fill="#333333" d="M250.737,239.74l-0.158-0.839c0.373,0.086,0.702,0.146,0.989,0.181c0.331,0.041,0.504-0.115,0.521-0.467
		l0.136-2.925c-0.619,0.134-1.14,0.235-1.563,0.304l-0.196-0.868c0.598-0.056,1.197-0.147,1.798-0.275l0.125-2.709l-1.567-0.191
		l0.039-0.827l1.567,0.191l0.105-2.266l0.914,0.112l-0.105,2.266l1.253,0.153l-0.039,0.827l-1.253-0.153l-0.109,2.361
		c0.425-0.117,0.838-0.247,1.238-0.391l-0.04,0.851c-0.276,0.095-0.688,0.222-1.238,0.379l-0.162,3.488
		c-0.033,0.711-0.415,1.022-1.146,0.933L250.737,239.74z M255.996,235.054c-0.252,2.026-0.845,3.767-1.778,5.22l-0.703-0.689
		c0.996-1.469,1.561-3.466,1.695-5.989l0.174-3.752l6.878,0.84l-0.135,2.913l-2.454-0.3l-0.065,1.415l2.793,0.341l-0.036,0.779
		l-2.793-0.341l-0.069,1.475l2.193,0.268l-0.183,3.932l-0.875-0.107l0.027-0.588l-3.537-0.432l-0.027,0.588l-0.874-0.107
		l0.183-3.932l2.179,0.266l0.069-1.475L255.996,235.054z M258.759,233.186l-2.597-0.317l-0.079,1.413l2.61,0.319L258.759,233.186z
		 M261.312,231.376l-5.051-0.617l-0.062,1.331l5.051,0.617L261.312,231.376z M257.164,239.272l3.537,0.432l0.084-1.81l-3.537-0.432
		L257.164,239.272z"/>
	<path fill="#333333" d="M267.828,240.02c-1.262,0.417-2.64,0.698-4.135,0.845l-0.077-0.877c1.625-0.131,3.042-0.396,4.25-0.795
		L267.828,240.02z M267.047,231.1c-0.724,1.455-1.446,2.596-2.167,3.424c0.385-0.001,0.963-0.019,1.735-0.053
		c0.254-0.379,0.513-0.777,0.777-1.195l0.835,0.403c-1.241,1.85-2.26,3.16-3.058,3.93c0.941-0.102,1.873-0.281,2.794-0.539
		l-0.037,0.803c-1.355,0.349-2.686,0.544-3.992,0.585l-0.224-0.823c0.151-0.046,0.298-0.116,0.443-0.211
		c0.545-0.439,1.191-1.176,1.94-2.209c-0.912,0.041-1.631,0.065-2.157,0.074l-0.211-0.821c0.151-0.038,0.295-0.132,0.433-0.285
		c0.736-0.979,1.404-2.155,2.001-3.529L267.047,231.1z M270.398,236.958c-0.13,1.495-0.386,2.581-0.768,3.258
		c-0.418,0.696-1.078,1.254-1.981,1.674l-0.569-0.756c0.795-0.361,1.369-0.825,1.718-1.394c0.343-0.585,0.571-1.549,0.686-2.894
		L270.398,236.958z M268.277,235.433c0.158-0.029,0.22-0.042,0.185-0.038c0.449-0.242,1.055-0.943,1.817-2.104l-2.232-0.272
		l0.039-0.827l3.328,0.407c-0.153-0.46-0.33-0.896-0.53-1.306l0.96-0.028c0.181,0.448,0.351,0.931,0.51,1.449l2.937,0.358
		l-0.039,0.827l-3.994-0.488c-0.614,0.962-1.158,1.659-1.633,2.091c1.284,0.053,2.5,0.064,3.647,0.036
		c-0.285-0.445-0.576-0.87-0.873-1.276l0.737-0.319c0.864,1.182,1.509,2.181,1.935,2.997l-0.753,0.378
		c-0.16-0.325-0.346-0.657-0.557-0.996c-1.577,0.04-3.348,0.009-5.312-0.095L268.277,235.433z M272.984,242.349
		c-0.784-0.096-1.159-0.491-1.126-1.186l0.191-4.111l0.901,0.11l-0.184,3.967c-0.012,0.248,0.082,0.396,0.281,0.444l0.849,0.104
		c0.288,0.011,0.464-0.112,0.529-0.369c0.079-0.384,0.134-0.9,0.164-1.547l0.797,0.363c-0.052,1.126-0.172,1.815-0.358,2.066
		c-0.186,0.226-0.562,0.317-1.128,0.271L272.984,242.349z"/>
	<path fill="#333333" d="M276.733,235.659l2.82,0.345l-0.248,5.334c0.63-0.397,1.163-0.75,1.598-1.059l0.194,0.916
		c-0.816,0.599-1.715,1.132-2.7,1.599l-0.329-0.824c0.207-0.119,0.314-0.275,0.323-0.466l0.222-4.783l-1.919-0.234L276.733,235.659z
		 M278.425,232.297c0.868,0.725,1.583,1.431,2.146,2.119l-0.667,0.521c-0.513-0.649-1.232-1.36-2.159-2.132L278.425,232.297z
		 M280.822,236.086l3.537,0.432l0.167-3.608l0.966,0.118l-0.167,3.608l3.354,0.41l-0.04,0.863l-3.354-0.41l-0.305,6.557
		l-0.966-0.118l0.305-6.557l-3.537-0.432L280.822,236.086z"/>
</g>
<g id="灰色块_8_" transform="translate(53.000000, 565.000000)">
	<polygon id="Rectangle-4_16_" fill="#DDDDDE" stroke="#CDCDCD" stroke-width="0.8" points="85.688,-322.335 173.477,-310.978 
		173.477,-286.961 170.381,-284.398 82.404,-295.956 82.404,-319.259 	"/>
	<path id="Line-2_8_" fill="none" stroke="#CDCDCD" stroke-width="0.8" stroke-linecap="square" d="M172.984-310.511l-2.508,2.555"
		/>
	<g id="Rectangle-4_15_">
		<g>
			<polygon id="path-3_8_" fill="#F6F6F7" points="81.977,-319.456 170.477,-307.878 170.477,-283.956 81.977,-295.534 			"/>
		</g>
		<path fill="none" stroke="#CDCDCD" stroke-width="0.8" d="M82.376-319v23.115l87.7,11.473v-23.115L82.376-319z"/>
	</g>
</g>
<g>
	<path fill="#333333" d="M143.666,257.199l0.875,0.107l-0.083,1.786l1.201,0.147l-0.036,0.779l-1.201-0.147l-0.075,1.619
		c0.378-0.034,0.796-0.08,1.253-0.137l-0.038,0.815l-1.253,0.137l-0.124,2.661l-0.875-0.107l0.115-2.482
		c-0.746,0.038-1.521,0.064-2.327,0.078l-0.078-0.854c0.805,0.01,1.619-0.006,2.444-0.051l0.083-1.786l-2.036-0.249l-0.163-0.743
		c0.389-0.652,0.762-1.506,1.117-2.564l-1.083-0.132l0.038-0.815l1.292,0.158c0.135-0.465,0.283-1.021,0.445-1.669l0.853,0.285
		c-0.149,0.561-0.29,1.058-0.423,1.491l2.297,0.281l-0.038,0.815l-2.52-0.308c-0.344,0.979-0.688,1.816-1.036,2.513l1.292,0.158
		L143.666,257.199z M147.544,257.058c-0.57,0.396-1.088,0.727-1.556,0.992l-0.475-0.782c1.374-0.74,2.619-1.646,3.735-2.714
		l0.679,0.083c1.063,1.415,2.177,2.584,3.342,3.506l-0.527,0.622c-1.189-0.964-2.252-2.095-3.19-3.391
		c-0.695,0.655-1.36,1.212-1.994,1.673l3.733,0.456l-0.033,0.719l-3.746-0.458L147.544,257.058z M147.451,265.28l-0.176-0.733
		l0.573,0.094c0.287,0.035,0.437-0.08,0.449-0.343l0.05-1.079l-1.462-0.179l-0.104,2.242l-0.821-0.101l0.307-6.605l3.08,0.376
		l-0.26,5.598c-0.028,0.616-0.365,0.884-1.008,0.805L147.451,265.28z M146.917,262.37l1.462,0.179l0.053-1.139l-1.462-0.179
		L146.917,262.37z M147.001,260.56l1.462,0.179l0.055-1.187l-1.462-0.179L147.001,260.56z M150.114,259.385l0.731,0.089l-0.2,4.303
		l-0.731-0.089L150.114,259.385z M150.139,265.632l-0.16-0.779c0.468,0.09,0.807,0.147,1.016,0.173
		c0.278,0.034,0.426-0.122,0.441-0.464l0.257-5.526l0.822,0.1l-0.266,5.718c-0.032,0.688-0.365,0.993-1,0.915L150.139,265.632z"/>
	<path fill="#333333" d="M163.753,260.497l0.152-3.272l0.939,0.115l-0.191,4.111l-3.994-0.488l-0.204,4.399l3.681,0.45l0.152-3.272
		l0.953,0.116l-0.222,4.771l-0.953-0.116l0.031-0.672l-8.328-1.018l-0.031,0.672l-0.953-0.116l0.222-4.771l0.953,0.116l-0.152,3.272
		l3.681,0.45l0.204-4.399l-3.994-0.488l0.191-4.111l0.939,0.115l-0.152,3.272l3.055,0.373l0.194-4.184l0.965,0.118l-0.194,4.184
		L163.753,260.497z"/>
	<path fill="#333333" d="M167.885,258.035l3.55,0.434c0.213-0.448,0.386-0.853,0.516-1.214l0.948,0.224
		c-0.169,0.446-0.322,0.816-0.458,1.113l6.683,0.816l-0.039,0.839l-7.035-0.86c-0.526,0.957-1.166,1.831-1.92,2.623l-0.284,6.102
		L168.931,268l0.236-5.07c-0.483,0.407-0.968,0.773-1.456,1.1l-0.556-0.755c1.643-1.084,2.931-2.423,3.862-4.013l-3.172-0.388
		L167.885,258.035z M171.058,264.029l3.785,0.462l0.052-1.115c0.784-0.298,1.514-0.663,2.19-1.095l-4.908-0.6l0.038-0.803
		l6.108,0.747l-0.038,0.803c-0.75,0.527-1.574,1.001-2.468,1.422l-0.035,0.755l3.263,0.398l-0.038,0.827l-3.263-0.398l-0.105,2.266
		c-0.033,0.711-0.437,1.02-1.211,0.925l-1.631-0.199l-0.21-0.845c0.626,0.092,1.126,0.162,1.5,0.208
		c0.4,0.049,0.609-0.111,0.626-0.479l0.092-1.99l-3.785-0.462L171.058,264.029z"/>
	<path fill="#333333" d="M181.537,262.814c-0.317,0.419-0.664,0.823-1.041,1.211l-0.271-0.961c1.1-1.256,1.917-2.739,2.451-4.451
		l0.832,0.463c-0.262,0.748-0.59,1.487-0.982,2.218l-0.386,8.319l-0.914-0.111L181.537,262.814z M183,262.402l2.362,0.289
		l-0.236,5.083c0.301-0.245,0.674-0.573,1.123-0.984l0.182,0.878c-0.651,0.645-1.379,1.234-2.182,1.771l-0.341-0.838
		c0.189-0.122,0.288-0.267,0.295-0.434l0.222-4.783l-1.462-0.179L183,262.402z M184.391,259.304
		c0.755,0.711,1.367,1.385,1.836,2.021l-0.721,0.551c-0.442-0.648-1.036-1.34-1.781-2.074L184.391,259.304z M186.932,260.543
		l1.566,0.191l0.064-1.378l0.849,0.104l-0.064,1.378l1.475,0.18l-0.033,0.707c0.284-0.447,0.554-0.909,0.813-1.383l0.766,0.467
		c-0.471,0.923-1.026,1.759-1.665,2.509l1.501,0.183l-0.037,0.791l-2.141-0.261c-0.402,0.377-0.807,0.705-1.214,0.985l2.663,0.325
		l-0.248,5.347l-0.888-0.108l0.023-0.503l-2.441-0.299l-0.023,0.505l-0.874-0.107l0.199-4.292c-0.214,0.086-0.535,0.2-0.961,0.341
		l-0.439-0.741c1.145-0.334,2.163-0.865,3.054-1.592l-2.375-0.29l0.037-0.791l1.854,0.227l0.072-1.546l-1.566-0.191L186.932,260.543
		z M188.018,267.704l-0.062,1.317l2.441,0.299l0.062-1.318L188.018,267.704z M190.492,267.283l0.06-1.294l-2.441-0.298l-0.06,1.294
		L190.492,267.283z M189.632,263.188c0.405-0.433,0.781-0.905,1.129-1.417l-1.449-0.177l-0.072,1.546L189.632,263.188z"/>
	<path fill="#333333" d="M193.458,263.643l2.728,0.333l-0.247,5.322c0.559-0.35,1.083-0.7,1.571-1.05l0.219,0.943
		c-0.833,0.588-1.731,1.109-2.698,1.563l-0.33-0.813c0.2-0.151,0.304-0.319,0.313-0.504l0.22-4.747l-1.814-0.222L193.458,263.643z
		 M195.082,260.31c0.833,0.72,1.531,1.417,2.095,2.088l-0.667,0.521c-0.521-0.666-1.223-1.375-2.106-2.126L195.082,260.31z
		 M198.025,265.611l6.213,0.759l-0.037,0.791c-0.471,1.084-1.199,1.972-2.185,2.663c0.845,0.656,1.905,1.285,3.181,1.883
		l-0.543,0.682c-1.377-0.691-2.49-1.402-3.34-2.133c-1.05,0.578-2.365,0.993-3.943,1.242l-0.488-0.795
		c1.472-0.223,2.709-0.59,3.713-1.102c-0.945-0.951-1.575-1.973-1.893-3.063l-0.718-0.088L198.025,265.611z M199.246,261.107
		l4.385,0.536l-0.12,2.589c-0.014,0.304,0.149,0.476,0.488,0.518l1.201,0.147l-0.037,0.791l-1.436-0.175
		c-0.801-0.098-1.185-0.502-1.152-1.213l0.091-1.954l-2.532-0.31l-0.02,0.419c-0.059,1.263-0.775,2.164-2.147,2.704l-0.596-0.736
		c1.165-0.38,1.768-1.042,1.812-1.985L199.246,261.107z M199.592,266.647c0.3,0.913,0.863,1.761,1.693,2.544
		c0.875-0.575,1.539-1.273,1.988-2.094L199.592,266.647z"/>
	<path fill="#333333" d="M206.863,264.979l5.078,0.621l0.11-0.686l-4.281-0.523l0.104-2.242l9.45,1.154l-0.104,2.242l-4.229-0.517
		l-0.11,0.686l5.195,0.634l-0.031,0.659l-5.299-0.647l-0.176,0.666l3.785,0.463l-0.245,5.287l1.893,0.23l-0.032,0.695l-11.683-1.428
		l0.032-0.694l1.893,0.231l0.245-5.287l3.172,0.387l0.175-0.666l-4.973-0.607L206.863,264.979z M210.643,264.127l0.046-0.995
		l-1.944-0.238l-0.046,0.995L210.643,264.127z M209.126,271.922l6.056,0.74l0.037-0.791l-6.056-0.74L209.126,271.922z
		 M209.188,270.592l6.056,0.74l0.035-0.755l-6.056-0.74L209.188,270.592z M209.249,269.285l6.056,0.74l0.035-0.756l-6.056-0.74
		L209.249,269.285z M209.309,267.99l6.056,0.74l0.035-0.755l-6.057-0.74L209.309,267.99z M213.554,264.483l0.046-0.995l-2.063-0.252
		l-0.046,0.995L213.554,264.483z M216.36,264.826l0.046-0.995l-1.945-0.237l-0.046,0.995L216.36,264.826z"/>
</g>
<g>
	<g id="底座_76_" transform="translate(0.000000, 24.000000)">
		<polygon id="Rectangle-6_322_" fill="#F6F6F7" points="300.765,15.078 380.765,25.791 358.765,46.902 278.765,36.69 		"/>
		<polygon id="Rectangle-6_323_" fill="#EDEDEC" points="278.765,54.257 358.765,65.191 358.765,46.291 278.765,36.078 		"/>
		<polygon id="Line_83_" fill="#CDCDCD" points="279.765,54.136 279.765,36.578 278.765,36.578 278.765,55.025 358.765,65.203 
			358.765,45.637 357.765,45.637 357.765,64.072 		"/>
		<path id="Rectangle-6_324_" fill="#CDCDCD" d="M301.12,16.131L280.936,35.85l77.475,9.684l20.185-19.22L301.12,16.131z
			 M300.765,15.078l80,10.5l-22,21l-80-10L300.765,15.078z"/>
		<path id="Combined-Shape_99_" fill="#999999" d="M372.929,24.549l7.836,1.029l-4.521,4.316l-1.231-0.166l3.594-3.422l-6.589-0.863
			L372.929,24.549z M307.715,15.991l-6.95-0.913l-4.263,4.164l1.26,0.17l3.357-3.281l5.678,0.746L307.715,15.991z M351.17,45.629
			l7.595,0.949l4.453-4.25l-1.271-0.17l-3.535,3.365l-6.313-0.789L351.17,45.629z M285.53,37.424l-6.765-0.846l4.923-4.813
			l1.255,0.166l-4.007,3.916l5.514,0.688L285.53,37.424z"/>
		<polygon id="Rectangle-6_325_" fill="#DDDDDE" points="380.765,43.578 380.765,25.578 358.765,46.578 358.765,64.867 		"/>
		<polygon id="Path-13_80_" fill="#CDCDCD" points="358.765,63.578 358.765,65.078 380.765,43.578 380.765,25.578 379.765,26.578 
			379.765,43.17 		"/>
	</g>
	<g id="XMLID_609_">
		<g id="XMLID_208_">
			<path id="XMLID_1112_" fill="#DDDDDE" d="M349.964,59.5c-0.101,0-0.101,0-0.2,0c-0.399-0.102-0.8-0.301-1.101-0.699l-0.199-0.199
				h-0.399c-0.5,0-1.101-0.102-1.601-0.301l-0.301-0.102l-0.199,0.199c-0.2,0.201-0.5,0.4-0.801,0.4c-0.101,0-0.101,0-0.199,0
				c-0.2,0-0.399-0.102-0.601-0.199l-0.399-0.301c-0.601-0.4-0.801-1.199-0.601-1.803l0.101-0.299l-0.2-0.201
				c-0.101-0.1-0.2-0.197-0.2-0.197l-0.3-0.102l-30.2-4v-26.6l35,4.896v18.104h1.7c0.101,0,0.3,0,0.3,0c0.101,0,0.301,0,0.4,0
				s0.199,0,0.3,0l0.399,0.299c0.601,0.398,0.801,1.201,0.5,1.801l-0.199,0.299l0.199,0.303c0.399,0.5,0.7,1,0.899,1.5l0.101,0.301
				l0.301,0.1c0.699,0.102,1.3,0.801,1.3,1.5v0.5c0,0.301-0.101,0.5-0.3,0.699c-0.2,0.201-0.5,0.301-0.801,0.301h-0.399l-0.1,0.301
				c-0.199,0.602-0.5,1.102-0.899,1.602l-0.199,0.199l0.1,0.301c0.2,0.602,0,1.299-0.399,1.5l-0.399,0.199
				C350.265,59.5,350.164,59.5,349.964,59.5z"/>
			<path id="XMLID_922_" fill="#999999" d="M313.564,25.602l34,4.799v17.102v1h1c0.399,0,0.699,0,0.8,0h0.101
				c0.101,0,0.101,0,0.199,0c0.101,0,0.301,0,0.4,0c0,0,0,0,0.1,0l0.2,0.201c0.399,0.299,0.5,0.799,0.3,1.197l-0.3,0.602l0.399,0.5
				c0.301,0.398,0.601,0.898,0.801,1.398l0.199,0.5l0.5,0.102c0.5,0.102,0.899,0.602,0.899,1v0.5c0,0.102,0,0.201-0.101,0.301
				c-0.1,0.102-0.3,0.199-0.5,0.199h-0.699l-0.2,0.701c-0.199,0.5-0.5,1-0.8,1.398l-0.399,0.398l0.199,0.602
				c0.101,0.398,0.101,0.699-0.199,0.799l-0.399,0.201c0,0-0.101,0-0.2,0h-0.101c-0.3,0-0.601-0.201-0.8-0.5l-0.301-0.398h-0.5
				h-0.101c-0.5,0-1-0.102-1.399-0.201l-0.601-0.199l-0.399,0.5c-0.101,0.102-0.3,0.199-0.5,0.199h-0.101
				c-0.1,0-0.3-0.102-0.399-0.199l-0.399-0.301c-0.399-0.299-0.601-0.799-0.399-1.199l0.2-0.5l-0.301-0.5
				c-0.101-0.1-0.199-0.199-0.3-0.301l-0.101-0.199l-0.399-0.1l-29.399-4V25.602 M312.564,24.5v27.602l30.3,4.102l0.2,0.1
				c-0.4,0.801,0,1.801,0.8,2.4l0.399,0.299c0.2,0.201,0.5,0.301,0.801,0.301c0.1,0,0.199,0,0.199,0c0.5,0,0.899-0.199,1.2-0.6
				c0.601,0.197,1.199,0.299,1.699,0.299h0.101c0.399,0.5,0.899,0.801,1.399,0.898c0.101,0,0.101,0,0.2,0c0.2,0,0.399,0,0.601-0.1
				l0.399-0.199c0.7-0.301,1-1.201,0.7-2.102c0.5-0.5,0.8-1.102,1-1.699c0.899,0,1.6-0.602,1.6-1.5v-0.5c0-0.9-0.8-1.801-1.699-1.9
				c-0.2-0.6-0.601-1.197-1-1.697c0.399-0.803,0.199-1.9-0.601-2.5l-0.399-0.303c-0.101-0.1-0.2-0.1-0.301-0.1
				c-0.199,0-0.399,0.1-0.6,0.1h-0.101c0,0,0,0-0.101,0s-0.3,0-0.899,0v-18L312.564,24.5L312.564,24.5z"/>
		</g>
		<path id="XMLID_660_" fill="#DDDDDE" stroke="#999999" d="M350.564,47.602c0,0-0.7,0-1,0c-0.101,0,0,0-1,0"/>
		<g id="XMLID_205_">
			<polygon id="XMLID_779_" fill="#FFFFFF" points="308.064,54.5 308.064,28 344.064,32.9 344.064,59.4 			"/>
			<path id="XMLID_776_" fill="#333333" d="M308.564,28.602l35,4.799v25.602l-35-4.799V28.602 M307.564,27.4V55l37,5V32.4
				L307.564,27.4L307.564,27.4z"/>
		</g>
		<line id="XMLID_201_" fill="none" stroke="#333333" stroke-miterlimit="10" x1="308.664" y1="33.201" x2="344.164" y2="38"/>
		<polygon id="XMLID_626_" fill="#333333" points="311.064,31.201 310.064,31.102 310.064,30.301 311.064,30.4 		"/>
		<polygon id="XMLID_200_" fill="#333333" points="312.864,31.5 312.064,31.4 312.064,30.5 312.864,30.602 		"/>
		<polygon id="XMLID_611_" fill="#333333" points="314.864,31.701 313.964,31.602 313.964,30.701 314.864,30.801 		"/>
		<path id="XMLID_610_" fill="#FFFFFF" stroke="#D6282C" stroke-miterlimit="10" d="M340.164,62.201c-0.3,0-0.5-0.102-0.8-0.303
			l-0.399-0.299c-0.801-0.5-1.101-1.602-0.7-2.398c-0.399-0.602-0.699-1.102-0.899-1.803c-1-0.197-1.7-1-1.7-1.898V55
			c0-0.5,0.2-0.898,0.5-1.199c0.301-0.301,0.801-0.398,1.301-0.301c0.199-0.5,0.5-1,0.899-1.398l0,0c-0.2-0.5-0.3-1-0.2-1.398
			c0.101-0.5,0.4-0.801,0.801-1l0.399-0.201c0.2-0.1,0.5-0.1,0.8-0.1c0.7,0.1,1.301,0.6,1.601,1.199l0,0c0.5,0,0.899,0,1.5,0.199
			l0,0c0.301-0.6,1-0.898,1.601-0.801c0.3,0,0.5,0.102,0.8,0.301l0.4,0.301c0.8,0.602,1.1,1.699,0.6,2.5c0.4,0.5,0.7,1.102,1,1.699
			c1,0.199,1.7,1,1.7,1.9v0.5c0,0.898-0.7,1.5-1.601,1.5c-0.199,0.697-0.601,1.197-1,1.697c0.301,0.9,0,1.803-0.699,2.102
			l-0.4,0.201c-0.199,0.1-0.5,0.1-0.8,0.1l0,0c-0.5-0.1-1.101-0.398-1.399-0.898c-0.601,0-1.301-0.102-1.899-0.301
			C341.265,62.102,340.765,62.301,340.164,62.201z"/>
	</g>
</g>
<g>
	<path fill="#333333" d="M294.754,70.693l-0.014,0.312c-0.202,2.66-0.893,4.725-2.073,6.196l-0.661-0.744
		c1.012-1.267,1.615-3.121,1.807-5.565l0.167-3.596c3.36,0.379,6.397,0.472,9.109,0.281l0.435,0.836
		c-2.528,0.166-5.412,0.086-8.652-0.237l-0.078,1.678l9.398,1.148l-0.039,0.839L294.754,70.693z M303.043,73.393l-0.236,5.083
		l-0.938-0.115l0.025-0.563l-5.286-0.646l-0.026,0.563l-0.939-0.115l0.236-5.083L303.043,73.393z M296.646,76.313l5.286,0.646
		l0.133-2.853l-5.287-0.646L296.646,76.313z"/>
	<path fill="#333333" d="M305.901,71.776c1.165-0.219,2.649-1.371,4.452-3.458l0.952,0.418c-1.246,1.39-2.48,2.461-3.707,3.211
		c2.346,0.199,4.728,0.341,7.147,0.427c-0.498-0.751-0.979-1.417-1.443-1.997l0.866-0.268c1.058,1.327,2.041,2.781,2.947,4.362
		l-0.933,0.296c-0.152-0.276-0.453-0.791-0.899-1.544c-2.683-0.103-5.761-0.306-9.239-0.61L305.901,71.776z M315.634,75.028
		l-0.231,4.999l-0.953-0.117l0.027-0.6l-6.813-0.833l-0.028,0.6l-0.953-0.116l0.232-4.999L315.634,75.028z M307.702,77.651
		l6.813,0.832l0.127-2.745l-6.813-0.832L307.702,77.651z"/>
	<path fill="#333333" d="M320.563,71.218c-0.354,0.455-0.721,0.844-1.104,1.167l-0.8-0.58c0.809-0.641,1.421-1.402,1.838-2.283
		l0.893,0.29l-0.359,0.703l3.498,0.428l-0.035,0.755l-2.192-0.268c0.295,0.422,0.52,0.794,0.67,1.119l-0.875,0.194
		c-0.206-0.467-0.468-0.945-0.787-1.434L320.563,71.218z M329.987,74.044l-0.102,2.169l-0.914-0.112l0.066-1.426l-9.241-1.129
		l-0.065,1.426l-0.914-0.111l0.101-2.169l5.168,0.631c-0.117-0.304-0.24-0.58-0.368-0.828l0.92-0.033l-0.075-0.057
		c0.649-0.636,1.14-1.368,1.466-2.196l0.893,0.291c-0.118,0.274-0.225,0.507-0.321,0.696l3.772,0.461l-0.035,0.755l-2.323-0.284
		c0.271,0.387,0.475,0.725,0.609,1.015l-0.849,0.186c-0.216-0.46-0.472-0.901-0.767-1.323l-0.822-0.101
		c-0.226,0.342-0.51,0.693-0.85,1.053l-0.687-0.481c0.15,0.34,0.275,0.661,0.375,0.962L329.987,74.044z M328.119,75.275
		l-0.109,2.349l-6.513-0.795l-0.039,0.828l7.114,0.869l-0.144,3.081l-0.927-0.113l0.023-0.504l-6.188-0.756l-0.021,0.492
		l-0.94-0.115l0.29-6.245L328.119,75.275z M321.374,79.466l6.187,0.756l0.053-1.115l-6.188-0.756L321.374,79.466z M321.529,76.133
		l5.6,0.684l0.044-0.959l-5.6-0.684L321.529,76.133z"/>
	<path fill="#333333" d="M331.774,75.42l1.396,0.171l0.131-2.829l-1.58-0.193l0.038-0.816l4.111,0.502l-0.038,0.816l-1.566-0.191
		l-0.131,2.829l1.422,0.173l-0.039,0.839l-1.422-0.173l-0.125,2.686c0.53-0.104,1.062-0.232,1.594-0.385l-0.039,0.827
		c-1.215,0.334-2.583,0.585-4.104,0.752l-0.196-0.856c0.554-0.037,1.143-0.093,1.768-0.169l0.138-2.973l-1.396-0.171L331.774,75.42z
		 M336.657,72.026l6.277,0.767l-0.258,5.55l-2.662-0.325l-0.067,1.462l2.872,0.351l-0.038,0.803l-2.872-0.351l-0.071,1.522
		l3.289,0.402l-0.038,0.827l-7.518-0.918l0.038-0.827l3.289,0.402l0.07-1.522l-2.897-0.354l0.037-0.803l2.897,0.354l0.067-1.463
		l-2.676-0.327L336.657,72.026z M339.111,77.137l0.074-1.631l-1.774-0.217l-0.075,1.631L339.111,77.137z M337.446,74.546
		l1.774,0.217l0.076-1.643l-1.774-0.217L337.446,74.546z M341.813,77.467l0.075-1.631l-1.762-0.215l-0.076,1.631L341.813,77.467z
		 M340.237,73.235l-0.076,1.643l1.762,0.215L342,73.45L340.237,73.235z"/>
</g>
<g id="底座_50_" transform="translate(0.000000, 17.000000)">
	<polygon id="Rectangle-6_210_" fill="#F6F6F7" points="729.343,80.363 809.343,91.076 787.343,112.182 707.343,101.972 	"/>
	<polygon id="Rectangle-6_211_" fill="#EDEDEC" points="707.343,119.543 787.343,130.472 787.343,111.576 707.343,101.363 	"/>
	<polygon id="Line_53_" fill="#CDCDCD" points="708.343,119.421 708.343,101.863 707.343,101.863 707.343,120.306 787.343,130.489 
		787.343,110.921 786.343,110.921 786.343,129.355 	"/>
	<path id="Rectangle-6_212_" fill="#CDCDCD" d="M729.697,81.417l-20.185,19.716l77.476,9.687l20.187-19.22L729.697,81.417z
		 M729.343,80.363l80,10.5l-22,21l-80-10L729.343,80.363z"/>
	<path id="Combined-Shape_62_" fill="#999999" d="M801.507,89.834l7.836,1.028l-4.521,4.316l-1.231-0.166l3.593-3.42l-6.588-0.865
		L801.507,89.834z M736.293,81.275l-6.95-0.912l-4.263,4.165l1.26,0.169l3.357-3.28l5.678,0.745L736.293,81.275z M779.748,110.914
		l7.595,0.949l4.453-4.25l-1.271-0.169l-3.535,3.365l-6.313-0.789L779.748,110.914z M714.107,102.708l-6.766-0.846l4.923-4.812
		l1.255,0.167l-4.007,3.914l5.515,0.688L714.107,102.708z"/>
	<polygon id="Rectangle-6_213_" fill="#DDDDDE" points="809.343,108.863 809.343,90.863 787.343,111.863 787.343,130.15 	"/>
	<polygon id="Path-13_52_" fill="#CDCDCD" points="787.343,128.863 787.343,130.363 809.343,108.863 809.343,90.863 808.343,91.863 
		808.343,108.456 	"/>
</g>
<g id="超高清全媒体转型" transform="translate(29.000000, 0.000000)">
	<polygon id="Path_10_" fill="#DDDDDE" stroke="#999999" points="712.25,80.532 751.173,85.593 751.173,117.645 712.25,112.584 	"/>
	<g id="Path_11_">
		<g>
			<polygon id="path-82" fill="#FFFFFF" points="707.173,83.906 746.096,88.967 746.096,121.019 707.173,115.958 			"/>
		</g>
		<path fill="none" stroke="#333333" d="M707.673,84.476v31.043l37.923,4.931V89.406L707.673,84.476z"/>
	</g>
	<path id="Path_12_" fill="none" stroke="#D6282C" d="M724.596,106.726l6.553-3.646l-6.553-5.342V106.726z"/>
	<polyline id="Path-3" fill="none" stroke="#333333" points="710.979,92.836 710.979,88.197 716.479,88.912 	"/>
	<polyline id="Path-6" fill="none" stroke="#333333" points="736.788,116.017 742.288,116.729 742.288,111.245 	"/>
</g>
<g id="底座_51_" transform="translate(0.000000, 17.000000)">
	<polygon id="Rectangle-6_214_" fill="#F6F6F7" points="641.442,165.68 721.442,176.393 699.442,197.5 619.442,187.29 	"/>
	<polygon id="Rectangle-6_215_" fill="#EDEDEC" points="619.442,204.861 699.442,215.79 699.442,196.893 619.442,186.68 	"/>
	<polygon id="Line_54_" fill="#CDCDCD" points="620.442,204.739 620.442,187.18 619.442,187.18 619.442,205.624 699.442,215.806 
		699.442,196.239 698.442,196.239 698.442,214.672 	"/>
	<path id="Rectangle-6_216_" fill="#CDCDCD" d="M641.797,166.734l-20.184,19.716l77.475,9.687l20.188-19.22L641.797,166.734z
		 M641.442,165.68l80,10.5l-22,21l-80-10L641.442,165.68z"/>
	<path id="Combined-Shape_63_" fill="#999999" d="M713.606,175.152l7.836,1.028l-4.522,4.316l-1.23-0.166l3.593-3.42l-6.588-0.865
		L713.606,175.152z M648.393,166.592l-6.949-0.912l-4.264,4.165l1.261,0.169l3.356-3.28l5.678,0.745L648.393,166.592z
		 M691.848,196.231l7.596,0.949l4.453-4.25l-1.272-0.169l-3.535,3.365l-6.313-0.789L691.848,196.231z M626.207,188.026l-6.765-0.846
		l4.923-4.812l1.255,0.167l-4.007,3.914l5.514,0.688L626.207,188.026z"/>
	<polygon id="Rectangle-6_217_" fill="#DDDDDE" points="721.442,194.18 721.442,176.18 699.442,197.18 699.442,215.467 	"/>
	<polygon id="Path-13_53_" fill="#CDCDCD" points="699.442,214.18 699.442,215.68 721.442,194.18 721.442,176.18 720.442,177.18 
		720.442,193.773 	"/>
</g>
<g id="视屏处理" transform="translate(29.000000, 0.000000)">
	<polygon id="Path_13_" fill="#DDDDDE" stroke="#999999" points="624.52,165.68 663.442,170.741 663.442,202.792 624.52,197.732 	
		"/>
	<g id="Path_14_">
		<g>
			<polygon id="path-83" fill="#FFFFFF" points="619.442,169.054 658.365,174.115 658.365,206.167 619.442,201.106 			"/>
		</g>
		<path fill="none" stroke="#333333" d="M619.942,169.624v31.043l37.923,4.931v-31.043L619.942,169.624z"/>
	</g>
	<path id="Oval-5" fill="none" stroke="#D6282C" d="M638.969,196.393c4.844,0.629,8.733-2.752,8.733-7.572
		c0-4.872-3.979-9.354-8.862-9.983c-4.853-0.639-8.744,2.752-8.744,7.563C630.096,191.272,634.076,195.756,638.969,196.393z"/>
	<path id="Path_15_" fill="none" stroke="#D6282C" d="M636.865,192.252l6.551-3.628l-6.551-5.354V192.252z"/>
</g>
<g id="对象存储服务OBS" transform="translate(355.000000, 1260.000000)">
	<g id="底座_62_" transform="translate(0.000000, 13.000000)">
		<polygon id="Rectangle-6_266_" fill="#F6F6F7" points="222.375,-1028.115 302.375,-1017.402 280.375,-996.292 200.375,-1006.504 
					"/>
		<polygon id="Rectangle-6_267_" fill="#EDEDEC" points="200.375,-988.936 280.375,-978.004 280.375,-996.902 200.375,-1007.115 		
			"/>
		<polygon id="Line_69_" fill="#CDCDCD" points="201.375,-989.057 201.375,-1006.615 200.375,-1006.615 200.375,-988.168 
			280.375,-977.99 280.375,-997.557 279.375,-997.557 279.375,-979.122 		"/>
		<path id="Rectangle-6_268_" fill="#CDCDCD" d="M222.729-1027.061l-20.183,19.718l77.474,9.685l20.188-19.22L222.729-1027.061z
			 M222.375-1028.115l80,10.5l-22,21l-80-10L222.375-1028.115z"/>
		<path id="Combined-Shape_84_" fill="#999999" d="M294.539-1018.643l7.836,1.028l-4.522,4.316l-1.23-0.166l3.593-3.422
			l-6.588-0.863L294.539-1018.643z M229.326-1027.203l-6.951-0.912l-4.262,4.165l1.259,0.169l3.358-3.28l5.678,0.745
			L229.326-1027.203z M272.78-997.564l7.595,0.949l4.453-4.25l-1.272-0.169l-3.534,3.365l-6.313-0.789L272.78-997.564z
			 M207.141-1005.769l-6.766-0.846l4.923-4.811l1.255,0.164l-4.007,3.916l5.513,0.688L207.141-1005.769z"/>
		<polygon id="Rectangle-6_269_" fill="#DDDDDE" points="302.375,-999.615 302.375,-1017.615 280.375,-996.615 280.375,-978.327 		
			"/>
		<polygon id="Path-13_66_" fill="#CDCDCD" points="280.375,-979.615 280.375,-978.115 302.375,-999.615 302.375,-1017.615 
			301.375,-1016.615 301.375,-1000.021 		"/>
	</g>
	<g id="云端数据源icon_4_" transform="translate(29.000000, 2.000000)">
		<path id="Fill-1-Copy_5_" fill="#DDDDDE" stroke="#999999" d="M236.209-1015.156c-0.357-0.033-1.146-11.58-11.852-12.861
			c-10.511-1.258-11.494,10.067-11.852,10.024c-4.316-0.519-7.816,2.76-7.816,7.317c0,4.557,3.5,8.671,7.816,9.188l23.702,2.837
			c4.316,0.521,7.817-2.759,7.817-7.313C244.026-1010.524,240.344-1014.755,236.209-1015.156z"/>
		<path id="Fill-1_14_" fill="#FFFFFF" d="M231.895-1011.682c-0.355-0.025-1.146-11.577-11.852-12.854
			c-10.509-1.267-11.493,10.06-11.85,10.017c-4.318-0.517-7.818,2.764-7.818,7.317c0,4.553,3.5,8.671,7.818,9.188l23.7,2.839
			c4.317,0.521,7.817-2.761,7.817-7.313C239.712-1007.046,236.029-1011.286,231.895-1011.682z"/>
		<path id="Path_17_" fill="none" stroke="#D6282C" d="M221.811-996.668l-5.112-0.563v-6.163l-4.019-0.438
			c-0.268-0.029-0.375-0.104-0.389-0.114c-0.003-0.027,0.029-0.144,0.219-0.311l5.969-5.276c0.205-0.182,0.462-0.29,0.77-0.23
			c0.291,0.033,0.563,0.188,0.767,0.406l5.811,6.537c0.193,0.218,0.219,0.344,0.218,0.359c-0.014,0.017-0.12,0.063-0.396,0.043
			l-3.834-0.418v6.168H221.811z"/>
		<path id="Fill-1_15_" fill="none" stroke="#333333" d="M231.895-1011.682c-0.355-0.025-1.146-11.577-11.852-12.854
			c-10.509-1.267-11.493,10.06-11.85,10.017c-4.318-0.517-7.818,2.764-7.818,7.317c0,4.553,3.5,8.671,7.818,9.188l23.7,2.839
			c4.317,0.521,7.817-2.761,7.817-7.313C239.712-1007.046,236.029-1011.286,231.895-1011.682z"/>
	</g>
</g>
<g id="_x30_8" transform="translate(1305.000000, 1262.000000)">
	<g id="底座_68_" transform="translate(0.000000, 11.000000)">
		<polygon id="Rectangle-6_290_" fill="#F6F6F7" points="-788.617,-967.904 -708.617,-957.191 -730.617,-936.081 -810.617,-946.293 
					"/>
		<polygon id="Rectangle-6_291_" fill="#EDEDEC" points="-810.617,-928.725 -730.617,-917.793 -730.617,-936.691 -810.617,-946.904 
					"/>
		<polygon id="Line_75_" fill="#CDCDCD" points="-809.617,-928.845 -809.617,-946.404 -810.617,-946.404 -810.617,-927.958 
			-730.617,-917.779 -730.617,-937.345 -731.617,-937.345 -731.617,-918.911 		"/>
		<path id="Rectangle-6_292_" fill="#CDCDCD" d="M-788.263-966.85l-20.185,19.718l77.476,9.685l20.187-19.22L-788.263-966.85z
			 M-788.617-967.904l80,10.5l-22,21l-80-10L-788.617-967.904z"/>
		<path id="Combined-Shape_90_" fill="#999999" d="M-716.453-958.432l7.836,1.027l-4.521,4.316l-1.231-0.166l3.593-3.422
			l-6.588-0.863L-716.453-958.432z M-781.667-966.992l-6.95-0.912l-4.263,4.165l1.26,0.169l3.357-3.279l5.678,0.744
			L-781.667-966.992z M-738.212-937.354l7.595,0.949l4.453-4.25l-1.271-0.169l-3.535,3.365l-6.313-0.789L-738.212-937.354z
			 M-803.854-945.559l-6.765-0.846l4.923-4.811l1.255,0.164l-4.007,3.916l5.514,0.688L-803.854-945.559z"/>
		<polygon id="Rectangle-6_293_" fill="#DDDDDE" points="-708.617,-939.404 -708.617,-957.404 -730.617,-936.404 -730.617,-918.116 
					"/>
		<polygon id="Path-13_72_" fill="#CDCDCD" points="-730.617,-919.404 -730.617,-917.904 -708.617,-939.404 -708.617,-957.404 
			-709.617,-956.404 -709.617,-939.811 		"/>
	</g>
	<g id="云端数据源icon_10_" transform="translate(29.000000, 0.000000)">
		<path id="Fill-1-Copy_11_" fill="#DDDDDE" stroke="#999999" d="M-774.783-954.945c-0.355-0.033-1.146-11.58-11.852-12.861
			c-10.51-1.258-11.494,10.067-11.852,10.024c-4.315-0.519-7.815,2.761-7.815,7.317s3.5,8.671,7.815,9.188l23.702,2.838
			c4.316,0.521,7.817-2.76,7.817-7.313C-766.966-950.313-770.648-954.544-774.783-954.945z"/>
		<path id="Fill-1_26_" fill="#FFFFFF" d="M-779.097-951.471c-0.354-0.025-1.146-11.577-11.854-12.854
			c-10.508-1.267-11.492,10.06-11.849,10.017c-4.318-0.517-7.818,2.765-7.818,7.317c0,4.554,3.5,8.671,7.818,9.188l23.702,2.839
			c4.313,0.521,7.813-2.761,7.813-7.313C-771.28-946.835-774.962-951.075-779.097-951.471z"/>
		<path id="Fill-1_27_" fill="none" stroke="#333333" d="M-779.097-951.471c-0.354-0.025-1.146-11.577-11.854-12.854
			c-10.508-1.267-11.492,10.06-11.849,10.017c-4.318-0.517-7.818,2.765-7.818,7.317c0,4.554,3.5,8.671,7.818,9.188l23.702,2.839
			c4.313,0.521,7.813-2.761,7.813-7.313C-771.28-946.835-774.962-951.075-779.097-951.471z"/>
	</g>
	<path id="Combined-Shape_91_" fill="#D6282C" d="M-760.602-945.455l0.652,0.736c0.833-0.441,1.967-0.203,2.701,0.615
		c0.838,0.946,0.838,2.313,0,3.035c-0.838,0.729-2.196,0.563-3.034-0.395c-0.732-0.829-0.825-1.979-0.271-2.736l-0.646-0.738
		c-1.406,0.945-3.417,0.69-4.822-0.623l-0.646,0.569c0.552,0.904,0.461,2.025-0.273,2.664c-0.838,0.729-2.19,0.554-3.033-0.396
		c-0.838-0.941-0.838-2.311,0-3.028c0.733-0.646,1.867-0.583,2.7,0.075l0.653-0.567c-1.126-1.552-1.126-3.563,0-4.821l-0.653-0.729
		c-0.833,0.438-1.967,0.203-2.7-0.624c-0.838-0.946-0.838-2.313,0-3.033c0.843-0.729,2.195-0.556,3.033,0.394
		c0.734,0.828,0.825,1.979,0.273,2.736l0.646,0.737c1.405-0.942,3.416-0.688,4.821,0.625l0.647-0.567
		c-0.557-0.906-0.463-2.026,0.271-2.666c0.838-0.729,2.196-0.554,3.034,0.396c0.838,0.943,0.838,2.313,0,3.029
		c-0.734,0.646-1.868,0.584-2.701-0.076l-0.652,0.568C-759.477-948.725-759.477-946.71-760.602-945.455z M-769.23-943.371
		c0.42,0.473,1.104,0.561,1.521,0.193c0.419-0.362,0.419-1.051,0-1.521c-0.419-0.474-1.104-0.563-1.521-0.197
		C-769.649-944.523-769.649-943.844-769.23-943.371z M-759.521-951.82c0.42,0.473,1.104,0.561,1.521,0.195
		c0.419-0.365,0.419-1.044,0-1.521c-0.419-0.473-1.104-0.561-1.521-0.188C-759.94-952.975-759.94-952.291-759.521-951.82z
		 M-769.23-953.081c0.42,0.474,1.104,0.562,1.521,0.188c0.419-0.355,0.419-1.045,0-1.519c-0.419-0.475-1.104-0.563-1.521-0.196
		C-769.649-954.232-769.649-953.553-769.23-953.081z M-759.521-942.111c0.42,0.473,1.104,0.563,1.521,0.195
		c0.419-0.364,0.419-1.044,0-1.521c-0.419-0.474-1.104-0.562-1.521-0.188C-759.94-943.264-759.94-942.582-759.521-942.111z
		 M-765.741-946.408c1.173,1.325,3.075,1.571,4.248,0.551c1.173-1.02,1.173-2.922,0-4.248c-1.173-1.324-3.075-1.567-4.248-0.551
		C-766.914-949.632-766.914-947.732-765.741-946.408z"/>
</g>
<text transform="matrix(1 0.12 0 1 384.5542 448.585)" fill="#231815" font-family="'Roboto-Regular'" font-size="12">Phone</text>
<g>
	<g id="底座_4_" transform="translate(0.000000, 25.000000)">
		<polygon id="Rectangle-6_16_" fill="#F5F5F6" points="501.818,402.028 581.818,412.741 559.818,433.849 479.818,423.642 		"/>
		<polygon id="Rectangle-6_15_" fill="#ECECEA" points="479.818,441.208 559.818,452.142 559.818,433.239 479.818,423.028 		"/>
		<polygon id="Line_4_" fill="#CCCCCC" points="480.818,441.089 480.818,423.528 479.818,423.528 479.818,441.976 559.818,452.153 
			559.818,432.587 558.818,432.587 558.818,451.022 		"/>
		<path id="Rectangle-6_14_" fill="#CCCCCC" d="M502.173,403.081l-20.188,19.723l77.479,9.679l20.187-19.218L502.173,403.081z
			 M501.818,402.028l80,10.5l-22,20.998l-80-9.998L501.818,402.028z"/>
		<path id="Combined-Shape_4_" fill="#989898" d="M573.982,411.499l7.836,1.029l-4.521,4.315l-1.234-0.166l3.595-3.422l-6.588-0.863
			L573.982,411.499z M508.769,402.942l-6.949-0.912l-4.264,4.164l1.261,0.17l3.354-3.281l5.687,0.746L508.769,402.942z
			 M552.225,432.577l7.595,0.949l4.452-4.248l-1.271-0.17l-3.527,3.364l-6.317-0.789L552.225,432.577z M486.583,424.374
			l-6.765-0.846l4.923-4.813l1.255,0.166l-4.007,3.916l5.514,0.688L486.583,424.374z"/>
		<polygon id="Rectangle-6_13_" fill="#DDDCDC" points="581.818,430.528 581.818,412.528 559.818,433.526 559.818,451.817 		"/>
		<polygon id="Path-13_4_" fill="#CCCCCC" points="559.818,450.528 559.818,452.028 581.818,430.528 581.818,412.528 
			580.818,413.528 580.818,430.12 		"/>
	</g>
	<g id="Group-5_1_" transform="translate(39.902172, 0.079221)">
		<path id="Rectangle_2_" fill="#DDDDDE" stroke="#999999" stroke-width="0.81" d="M487.541,408.602l16.476,2.091
			c1.543,0.186,2.793,1.59,2.793,3.139v29.92c0,1.558-1.25,2.656-2.793,2.479l-16.476-2.095c-1.543-0.188-2.793-1.594-2.793-3.145
			v-29.918C484.748,409.522,485.998,408.413,487.541,408.602z"/>
		<path id="Rectangle_1_" fill="#FFFFFF" stroke="#040000" stroke-width="0.5962" d="M482.541,411.602l16.476,2.091
			c1.543,0.186,2.793,1.59,2.793,3.139v29.92c0,1.558-1.25,2.656-2.793,2.479l-16.476-2.095c-1.543-0.188-2.793-1.594-2.793-3.145
			v-29.918C479.748,412.522,480.998,411.414,482.541,411.602z"/>
		<g id="Rectangle-34_1_">
			<path fill="none" stroke="#333333" stroke-width="0.6986" d="M501.862,443.574l-0.105,0.691l-21.79-3.121l0.105-0.691
				L501.862,443.574z M501.761,444.271l-21.79-3.121l0.104-0.691l21.79,3.121L501.761,444.271z"/>
			<g>
				<path id="path-20_1_" fill="none" stroke="#333333" d="M501.812,443.92l-21.792-3.119"/>
			</g>
		</g>
		<path id="Path_5_" fill="#D6282C" stroke="#D6282C" stroke-width="0.72" d="M490.305,444.322c-0.586-0.074-1.061,0.35-1.061,0.942
			s0.475,1.138,1.061,1.212c0.586,0.071,1.063-0.355,1.063-0.943S490.891,444.396,490.305,444.322z"/>
	</g>
</g>
<g enable-background="new    ">
	<path fill="#231815" d="M504.564,461.362v3.422l-1.154-0.14v-8.53l3.264,0.392c0.91,0.109,1.617,0.429,2.123,0.958
		c0.508,0.529,0.76,1.177,0.76,1.942c0,0.772-0.252,1.361-0.76,1.767c-0.506,0.404-1.213,0.552-2.123,0.442L504.564,461.362z
		 M504.564,460.46l2.108,0.253c0.578,0.069,1.01-0.034,1.295-0.311c0.285-0.277,0.429-0.65,0.429-1.123
		c0-0.474-0.146-0.886-0.431-1.235c-0.287-0.351-0.719-0.561-1.293-0.63l-2.108-0.253V460.46L504.564,460.46z"/>
	<path fill="#231815" d="M512.035,460.19c0.219-0.278,0.486-0.483,0.807-0.615c0.316-0.132,0.67-0.175,1.058-0.128
		c0.676,0.081,1.2,0.348,1.577,0.799c0.38,0.451,0.566,1.099,0.566,1.942v3.973l-1.154-0.138v-3.984c0-0.523-0.11-0.924-0.338-1.201
		c-0.225-0.276-0.559-0.441-1.004-0.495c-0.344-0.042-0.643-0.01-0.896,0.094c-0.255,0.104-0.459,0.27-0.615,0.492v4.752
		l-1.154-0.139v-9.141l1.154,0.139L512.035,460.19L512.035,460.19z"/>
	<path fill="#231815" d="M517.432,463.1c0-0.938,0.254-1.68,0.763-2.226c0.508-0.547,1.196-0.768,2.067-0.663
		c0.879,0.105,1.574,0.491,2.082,1.158c0.51,0.666,0.767,1.471,0.767,2.412v0.129c0,0.944-0.255,1.688-0.763,2.229
		s-1.198,0.76-2.073,0.653c-0.875-0.104-1.566-0.489-2.078-1.154c-0.511-0.665-0.765-1.468-0.765-2.408V463.1z M518.586,463.367
		c0,0.672,0.143,1.243,0.424,1.715c0.283,0.472,0.705,0.741,1.265,0.808c0.551,0.066,0.969-0.103,1.254-0.506
		c0.285-0.402,0.428-0.939,0.428-1.611v-0.13c0-0.663-0.146-1.233-0.432-1.71c-0.287-0.476-0.707-0.747-1.263-0.813
		c-0.551-0.066-0.969,0.104-1.252,0.512c-0.281,0.407-0.424,0.943-0.424,1.607V463.367L518.586,463.367z"/>
	<path fill="#231815" d="M525.553,460.963l0.082,0.953c0.211-0.311,0.476-0.54,0.793-0.687c0.318-0.147,0.683-0.197,1.088-0.148
		c0.685,0.082,1.213,0.346,1.588,0.791s0.563,1.086,0.563,1.922v4.002l-1.154-0.139v-3.979c0-0.559-0.11-0.968-0.332-1.229
		c-0.221-0.262-0.557-0.419-1.01-0.474c-0.354-0.043-0.658-0.008-0.906,0.105c-0.248,0.112-0.442,0.289-0.588,0.529v4.705
		l-1.153-0.14v-6.34L525.553,460.963z"/>
	<path fill="#231815" d="M533.967,468.436c-0.91-0.108-1.619-0.484-2.131-1.129c-0.51-0.644-0.764-1.438-0.764-2.389v-0.258
		c0-0.91,0.262-1.632,0.787-2.164c0.524-0.532,1.168-0.754,1.926-0.662c0.848,0.102,1.481,0.441,1.906,1.021
		c0.424,0.578,0.637,1.305,0.637,2.18v0.608l-4.055-0.485l-0.019,0.026c0,0.638,0.142,1.171,0.422,1.602
		c0.281,0.43,0.711,0.68,1.289,0.749c0.392,0.047,0.732,0.032,1.027-0.044s0.549-0.198,0.76-0.368l0.451,0.804
		c-0.228,0.191-0.525,0.34-0.896,0.446C534.936,468.477,534.49,468.498,533.967,468.436z M533.785,462.742
		c-0.402-0.049-0.736,0.065-1,0.346c-0.264,0.278-0.424,0.657-0.482,1.134l0.013,0.031l2.858,0.343v-0.094
		c0-0.461-0.113-0.854-0.34-1.183S534.256,462.799,533.785,462.742z"/>
</g>
<g>
	<g id="底座_2_" transform="translate(0.000000, 25.000000)">
		<polygon id="Rectangle-6_8_" fill="#F5F5F6" points="616.217,416.782 696.218,427.501 674.218,448.603 594.217,438.39 		"/>
		<polygon id="Rectangle-6_7_" fill="#ECECEA" points="594.217,455.966 674.218,466.89 674.218,448.001 594.217,437.782 		"/>
		<polygon id="Line_2_" fill="#CCCCCC" points="595.217,455.843 595.217,438.282 594.217,438.282 594.217,456.726 674.218,466.915 
			674.218,447.343 673.218,447.343 673.218,465.774 		"/>
		<path id="Rectangle-6_6_" fill="#CCCCCC" d="M616.568,417.839l-20.183,19.717l77.477,9.677l20.188-19.216L616.568,417.839z
			 M616.217,416.782l80.001,10.5l-22,21l-80.001-10L616.217,416.782z"/>
		<path id="Combined-Shape_2_" fill="#989898" d="M688.382,426.257l7.836,1.025l-4.522,4.313l-1.233-0.166l3.594-3.42l-6.588-0.865
			L688.382,426.257z M623.168,417.694l-6.951-0.91l-4.262,4.166l1.26,0.168l3.354-3.275l5.687,0.744L623.168,417.694z
			 M666.622,447.335l7.596,0.947l4.453-4.25l-1.272-0.168l-3.533,3.36l-6.313-0.789L666.622,447.335z M600.981,439.13l-6.767-0.846
			l4.924-4.814l1.254,0.166l-4.006,3.916l5.515,0.689L600.981,439.13z"/>
		<polygon id="Rectangle-6_5_" fill="#DDDCDC" points="696.218,445.282 696.218,427.282 674.218,448.282 674.218,466.569 		"/>
		<polygon id="Path-13_2_" fill="#CCCCCC" points="674.218,465.282 674.218,466.782 696.218,445.282 696.218,427.282 
			695.218,428.282 695.218,444.878 		"/>
	</g>
	<g id="pad" transform="translate(27.392996, 0.000000)">
		<g id="Group-9_6_" transform="translate(4.108949, 0.000000)">
			<path id="Rectangle-2-Copy-2" fill="#DDDDDE" stroke="#999999" stroke-width="0.729" d="M603.056,420.614l22.627,2.856
				c2.003,0.248,3.618,2.104,3.618,4.137v29.425c0,2.033-1.621,3.471-3.618,3.221l-22.627-2.859
				c-1.999-0.248-3.615-2.104-3.615-4.135v-29.425C599.436,421.802,601.059,420.361,603.056,420.614z"/>
			<path id="Path_112_" fill="none" stroke="#D6282C" stroke-width="0.72" d="M616.75,454.229c-0.501-0.06-0.908,0.299-0.908,0.807
				s0.407,0.971,0.908,1.033c0.499,0.063,0.904-0.297,0.904-0.806C617.654,454.759,617.25,454.296,616.75,454.229z"/>
		</g>
		<g id="Group-9_5_" transform="translate(0.000000, 2.053942)">
			<path id="Rectangle-2-Copy-2_1_" fill="#FFFFFF" stroke="#333333" stroke-width="0.729" d="M601.384,421.019l22.626,2.854
				c2.004,0.251,3.618,2.105,3.618,4.142v29.422c0,2.031-1.619,3.473-3.618,3.221l-22.626-2.854c-2.001-0.255-3.62-2.107-3.62-4.14
				V424.24C597.764,422.211,599.384,420.768,601.384,421.019z"/>
			<path id="Path_111_" fill="none" stroke="#D6282C" stroke-width="0.72" d="M612.275,455.674c-0.566-0.069-1.021,0.339-1.021,0.91
				c0,0.576,0.455,1.099,1.021,1.168c0.564,0.068,1.021-0.336,1.021-0.912C613.294,456.267,612.839,455.744,612.275,455.674z"/>
			<path id="Rectangle-2-Copy-2_2_" fill="#FFFFFF" stroke="#333333" stroke-width="0.729" d="M603.371,423.901l19.005,2.398
				c1.503,0.189,2.718,1.576,2.718,3.099v22.985c0,1.523-1.217,2.605-2.718,2.416l-19.005-2.396c-1.501-0.191-2.716-1.58-2.716-3.1
				v-22.985C600.655,424.795,601.87,423.713,603.371,423.901z"/>
		</g>
	</g>
</g>
<g enable-background="new    ">
	<path fill="#231815" d="M623.82,476.879v3.422l-1.154-0.139v-8.531l3.264,0.393c0.91,0.108,1.618,0.429,2.124,0.958
		c0.507,0.528,0.759,1.177,0.759,1.941c0,0.773-0.253,1.362-0.759,1.768c-0.506,0.404-1.214,0.552-2.124,0.441L623.82,476.879z
		 M623.82,475.977l2.108,0.253c0.577,0.069,1.011-0.033,1.295-0.311c0.285-0.277,0.429-0.65,0.429-1.123s-0.145-0.885-0.432-1.235
		c-0.287-0.352-0.719-0.562-1.292-0.63l-2.108-0.253V475.977L623.82,475.977z"/>
	<path fill="#231815" d="M633.97,481.519c-0.04-0.195-0.069-0.368-0.092-0.518c-0.021-0.149-0.033-0.298-0.037-0.447
		c-0.216,0.279-0.496,0.5-0.841,0.664c-0.347,0.163-0.719,0.222-1.117,0.173c-0.659-0.079-1.162-0.308-1.509-0.688
		c-0.345-0.379-0.518-0.866-0.518-1.46c0-0.605,0.243-1.05,0.733-1.332c0.49-0.283,1.155-0.374,1.996-0.273l1.254,0.15v-0.627
		c0-0.371-0.114-0.679-0.341-0.923c-0.226-0.244-0.547-0.392-0.961-0.44c-0.374-0.045-0.678,0.013-0.907,0.173
		c-0.229,0.159-0.347,0.37-0.347,0.632l-1.096-0.119l-0.013-0.036c-0.025-0.464,0.188-0.86,0.648-1.188
		c0.458-0.328,1.051-0.448,1.777-0.36c0.719,0.086,1.297,0.338,1.733,0.756c0.438,0.418,0.656,0.971,0.656,1.657v3.054
		c0,0.227,0.012,0.446,0.036,0.66c0.022,0.214,0.064,0.426,0.128,0.637L633.97,481.519z M632.054,480.444
		c0.418,0.051,0.794-0.013,1.13-0.188c0.336-0.174,0.556-0.395,0.657-0.659v-1.03l-1.296-0.155
		c-0.464-0.056-0.837,0.017-1.116,0.218c-0.278,0.2-0.419,0.459-0.419,0.775c0,0.28,0.089,0.515,0.264,0.699
		C631.449,480.29,631.709,480.403,632.054,480.444z"/>
	<path fill="#231815" d="M636.406,478.758c0-1.02,0.218-1.814,0.652-2.388c0.437-0.573,1.047-0.813,1.831-0.718
		c0.371,0.044,0.7,0.151,0.987,0.322s0.532,0.399,0.735,0.687v-3.486l1.153,0.14v9.141l-0.885-0.106l-0.176-0.822
		c-0.207,0.278-0.463,0.479-0.769,0.599c-0.305,0.12-0.657,0.156-1.061,0.107c-0.773-0.094-1.379-0.445-1.816-1.06
		c-0.437-0.614-0.655-1.377-0.655-2.291v-0.124H636.406z M637.561,479.02c0,0.642,0.132,1.17,0.394,1.585
		c0.261,0.418,0.668,0.657,1.219,0.725c0.344,0.041,0.633-0.002,0.867-0.13s0.426-0.324,0.574-0.588v-2.959
		c-0.148-0.279-0.341-0.512-0.577-0.693s-0.521-0.294-0.854-0.333c-0.555-0.066-0.964,0.112-1.228,0.538
		c-0.265,0.425-0.396,1.003-0.396,1.732L637.561,479.02L637.561,479.02z"/>
</g>
<g>
	<g id="底座_3_" transform="translate(0.000000, 25.000000)">
		<polygon id="Rectangle-6_12_" fill="#F5F5F6" points="270.69,371.484 350.691,382.204 328.691,403.306 248.69,393.093 		"/>
		<polygon id="Rectangle-6_11_" fill="#ECECEA" points="248.69,410.667 328.691,421.591 328.691,402.704 248.69,392.484 		"/>
		<polygon id="Line_3_" fill="#CCCCCC" points="249.69,410.544 249.69,392.984 248.69,392.984 248.69,411.427 328.691,421.616 
			328.691,402.046 327.691,402.046 327.691,420.476 		"/>
		<path id="Rectangle-6_10_" fill="#CCCCCC" d="M271.042,372.542l-20.182,19.717l77.476,9.676l20.189-19.214L271.042,372.542z
			 M270.69,371.484l80.001,10.5l-22,21.001l-80.001-10.001L270.69,371.484z"/>
		<path id="Combined-Shape_3_" fill="#989898" d="M342.855,380.96l7.836,1.024l-4.523,4.314l-1.232-0.166l3.595-3.42l-6.588-0.865
			L342.855,380.96z M277.641,372.396l-6.951-0.91l-4.262,4.166l1.26,0.168l3.354-3.274l5.688,0.744L277.641,372.396z
			 M321.095,402.038l7.597,0.947l4.452-4.25l-1.272-0.168l-3.533,3.36l-6.313-0.789L321.095,402.038z M255.456,393.833l-6.766-0.847
			l4.924-4.813l1.254,0.166l-4.006,3.916l5.514,0.688L255.456,393.833z"/>
		<polygon id="Rectangle-6_9_" fill="#DDDCDC" points="350.691,399.985 350.691,381.984 328.691,402.985 328.691,421.271 		"/>
		<polygon id="Path-13_3_" fill="#CCCCCC" points="328.691,419.983 328.691,421.483 350.691,399.985 350.691,381.984 
			349.691,382.984 349.691,399.581 		"/>
	</g>
	<g id="云桌面WORK-SPACE_1_" transform="translate(0.000000, 28.070539)">
		<path id="Path_4_" fill="#DDDDDE" stroke="#999999" stroke-width="0.72" d="M320.722,356.39l-32.146-4.814
			c-1.814-0.189-3.217,1.025-3.217,3.211v21.426c0,1.563,1.404,3.131,3.217,3.219l32.146,4.815c1.813,0.188,3.215-1.028,3.215-3.215
			v-21.423C323.938,358.041,322.533,356.476,320.722,356.39z"/>
		<polygon id="Path-15_2_" fill="#DDDDDE" stroke="#999999" stroke-width="0.72" points="288.096,384.241 318.845,388.069 
			315.119,390.249 284.368,386.549 		"/>
		<path id="Path_3_" fill="#FFFFFF" stroke="#040000" stroke-width="0.72" d="M316.688,358.207l-33.602-4.131
			c-1.701-0.211-3.09,0.998-3.09,2.695v21.574c0,1.693,1.389,3.256,3.09,3.472l33.602,4.133c1.702,0.211,3.09-1,3.09-2.699v-21.573
			C319.777,359.976,318.39,358.42,316.688,358.207z"/>
		<path id="Path_2_" fill="none" stroke="#D6282C" stroke-width="0.72" d="M285.36,365.5c-0.598,0-1.074,0.479-1.074,1.066
			c0,0.59,0.479,1.07,1.074,1.07c0.595,0,1.072-0.479,1.072-1.07C286.432,365.978,285.956,365.5,285.36,365.5z"/>
		<path id="Path_1_" fill="none" stroke="#D6282C" stroke-width="0.72" d="M285.36,360.154c-0.598,0-1.074,0.479-1.074,1.064
			c0,0.592,0.479,1.065,1.074,1.065c0.595,0,1.072-0.479,1.072-1.065C286.434,360.631,285.956,360.154,285.36,360.154z"/>
		<polyline id="Rectangle-13_1_" fill="#FFFFFF" stroke="#040000" stroke-width="0.72" points="302.503,384.444 302.503,388.528 
			297.148,387.991 297.148,383.706 297.148,384.241 		"/>
		<path id="Path-15_1_" fill="#FFFFFF" stroke="#040000" stroke-width="0.72" d="M284.368,386.553l30.751,3.824"/>
		<path id="Path-22_2_" fill="none" stroke="#040000" stroke-width="0.7" d="M280.002,375.672l39.646,4.284"/>
	</g>
</g>
<g enable-background="new    ">
	<path fill="#231815" d="M282.147,432.072v3.422l-1.154-0.14v-8.53l3.264,0.392c0.91,0.109,1.618,0.429,2.124,0.958
		c0.506,0.529,0.759,1.177,0.759,1.942c0,0.772-0.253,1.361-0.759,1.767c-0.506,0.405-1.214,0.552-2.124,0.442L282.147,432.072z
		 M282.147,431.17l2.109,0.253c0.577,0.069,1.01-0.034,1.295-0.311c0.285-0.277,0.428-0.65,0.428-1.123
		c0-0.474-0.144-0.885-0.431-1.235c-0.287-0.352-0.719-0.562-1.292-0.63l-2.109-0.253V431.17L282.147,431.17z"/>
	<path fill="#231815" d="M294.709,434.271l0.012,0.037c0.016,0.804-0.266,1.438-0.844,1.908s-1.342,0.647-2.291,0.534
		c-0.965-0.116-1.751-0.553-2.358-1.309c-0.607-0.758-0.911-1.66-0.911-2.712v-1.518c0-1.051,0.304-1.883,0.911-2.495
		s1.394-0.86,2.358-0.745c0.965,0.115,1.732,0.465,2.303,1.047c0.571,0.582,0.848,1.297,0.832,2.143l-0.012,0.033l-1.107-0.134
		c0-0.598-0.176-1.091-0.527-1.479c-0.352-0.391-0.848-0.624-1.488-0.7c-0.645-0.078-1.158,0.12-1.541,0.594
		c-0.383,0.475-0.574,1.097-0.574,1.865v1.529c0,0.776,0.191,1.448,0.574,2.014c0.383,0.566,0.896,0.887,1.541,0.965
		c0.641,0.076,1.137-0.037,1.488-0.34c0.352-0.304,0.527-0.761,0.527-1.37L294.709,434.271z"/>
</g>
<g enable-background="new    ">
	<path fill="#231815" d="M713.572,129.711c-0.416,0.391-0.924,0.81-1.523,1.258l-0.264-0.933c1.615-1.189,2.69-2.408,3.229-3.656
		l-2.953-0.354v-0.828l1.871,0.225c-0.198-0.551-0.438-1.101-0.719-1.646l0.828-0.141c0.279,0.617,0.508,1.2,0.684,1.75l-0.348,0.09
		l1.5,0.18v0.732c-0.313,0.835-0.793,1.642-1.439,2.419c0.654,0.487,1.253,1.022,1.787,1.606l-0.491,0.686
		c-0.416-0.507-0.853-0.966-1.308-1.381v5.076l-0.854-0.103V129.711L713.572,129.711z M718.865,126.482l0.84,0.102v2.292
		c-0.049,1.786-0.359,3.18-0.936,4.184c-0.587,0.938-1.519,1.601-2.798,1.992l-0.469-0.813c1.267-0.399,2.142-1.022,2.629-1.867
		c0.463-0.897,0.707-2.096,0.732-3.597L718.865,126.482L718.865,126.482z M721.865,125.162v6.636l-0.877-0.105v-5.808l-3.371-0.404
		v5.808l-0.853-0.103v-6.636L721.865,125.162z M720.461,135.326c-0.656-0.079-0.984-0.466-0.984-1.162v-2.676l0.841,0.101v2.496
		c0,0.288,0.133,0.447,0.396,0.479l0.744,0.089c0.168,0.021,0.291-0.028,0.373-0.146c0.104-0.148,0.17-0.592,0.203-1.332
		l0.803,0.349c-0.07,0.983-0.203,1.57-0.395,1.765c-0.187,0.161-0.461,0.22-0.828,0.176L720.461,135.326z"/>
	<path fill="#231815" d="M726.256,125.21l0.842,0.101v1.416l1.631,0.196v0.815l-1.631-0.196v1.393l1.775,0.213v0.84l-5.064-0.607
		v-0.84l0.695,0.083v-2.652l0.828,0.1v2.652l0.924,0.111V125.21z M725.561,130.945c-0.297,1.109-0.664,1.93-1.104,2.461l-0.637-0.63
		c0.44-0.546,0.768-1.287,0.983-2.222L725.561,130.945z M728.992,131.178c-0.527,2.617-2.064,4.192-4.607,4.729l-0.492-0.84
		c2.416-0.454,3.863-1.836,4.345-4.146L728.992,131.178z M726.232,130.139l0.827,0.1v3.131l-0.827-0.099V130.139z M731.428,129.97
		l0.842,0.102v2.124c-0.024,1.262-0.293,2.253-0.805,2.976c-0.496,0.652-1.305,1.107-2.424,1.365l-0.48-0.802
		c1.072-0.256,1.816-0.658,2.232-1.209c0.4-0.607,0.611-1.419,0.635-2.432V129.97z M729.064,126.026l5.641,0.677v0.816l-2.4-0.288
		c-0.03,0.436-0.08,0.87-0.145,1.302l2.113,0.254v5.7l-0.843-0.101v-4.896l-3.106-0.373v4.896l-0.828-0.1v-5.7l1.764,0.212
		c0.064-0.385,0.117-0.817,0.156-1.301l-2.352-0.282V126.026L729.064,126.026z M732.76,134.366c0.84,0.805,1.533,1.563,2.076,2.276
		l-0.635,0.561c-0.506-0.732-1.178-1.518-2.019-2.354L732.76,134.366z"/>
	<path fill="#231815" d="M738.1,134.887c-0.463,1-0.987,1.842-1.569,2.523l-0.709-0.601c0.6-0.632,1.116-1.419,1.547-2.359
		L738.1,134.887z M740.656,126.961l0.852,0.103v1.164l4.656,0.559v0.816l-4.656-0.559v1.523l3.828,0.459v3.853l-7.943-0.953v-3.853
		l3.265,0.392L740.656,126.961L740.656,126.961z M744.473,133.972v-2.232l-6.217-0.746v2.232L744.473,133.972z M739.984,135.113
		c0.239,0.813,0.457,1.698,0.647,2.657l-0.862,0.088c-0.171-1.028-0.365-1.92-0.591-2.674L739.984,135.113z M742.492,135.294
		c0.352,0.842,0.664,1.772,0.936,2.788l-0.852,0.09c-0.24-1.053-0.539-1.988-0.9-2.808L742.492,135.294z M744.953,135.349
		c0.734,1.058,1.32,2.003,1.752,2.839l-0.721,0.417c-0.408-0.841-0.984-1.806-1.729-2.895L744.953,135.349z"/>
	<path fill="#231815" d="M748.145,138.731l-0.18-0.85c0.344,0.082,0.639,0.138,0.887,0.167c0.313,0.038,0.47-0.115,0.47-0.46v-2.939
		c-0.408,0.119-0.863,0.236-1.367,0.352l-0.217-0.866c0.567-0.083,1.096-0.192,1.584-0.325v-2.712l-1.394-0.167v-0.816l1.394,0.167
		v-2.268l0.862,0.104v2.268l0.996,0.119v0.816l-0.996-0.119v2.327c0.394-0.145,0.718-0.277,0.974-0.399v0.854l-0.974,0.387v3.54
		c0,0.712-0.344,1.026-1.03,0.943L748.145,138.731z M757.133,139.343l-4.309-0.517v0.588l-0.791-0.096v-4.932l-0.42,0.178
		l-0.435-0.76c1.209-0.327,2.099-0.813,2.664-1.456l-2.256-0.271v-0.769l1.344,0.161c-0.168-0.38-0.358-0.739-0.575-1.077
		l0.721-0.189c0.201,0.359,0.396,0.812,0.588,1.354l0.912,0.109v-1.752c-0.992-0.063-1.912-0.146-2.76-0.247l-0.252-0.75
		c2.567,0.308,4.694,0.348,6.383,0.117l0.396,0.744c-0.848,0.131-1.84,0.184-2.977,0.158v1.824l0.938,0.112
		c0.279-0.445,0.521-0.934,0.72-1.461l0.745,0.353c-0.217,0.447-0.448,0.847-0.696,1.201l1.512,0.181v0.769l-2.459-0.295
		c0.656,0.734,1.584,1.414,2.783,2.037l-0.385,0.675c-1.248-0.75-2.261-1.68-3.035-2.788l-0.121-0.015v1.812l-0.791-0.095v-1.812
		l-0.107-0.013c-0.487,0.773-1.229,1.396-2.221,1.869l5.676,0.681v5.052l-0.791-0.095V139.343z M754.613,135.284l-1.789-0.214v1.188
		l1.789,0.214V135.284z M754.613,137.156l-1.789-0.214v1.151l1.789,0.214V137.156z M755.355,136.562l1.776,0.213v-1.188
		l-1.776-0.213V136.562z M755.355,138.397l1.776,0.213v-1.151l-1.776-0.213V138.397z"/>
	<path fill="#231815" d="M761.453,136.321c-0.072,1.663-0.357,3.009-0.854,4.037l-0.646-0.678c0.471-1.016,0.715-2.37,0.729-4.064
		v-5.76l3.505,0.421v9.348c0,0.736-0.337,1.064-1.009,0.983l-0.959-0.115l-0.205-0.792c0.449,0.085,0.757,0.139,0.927,0.159
		c0.303,0.036,0.455-0.166,0.455-0.605v-2.7L761.453,136.321z M763.396,132.99v-2.027l-1.935-0.232v2.027L763.396,132.99z
		 M761.463,133.538v2.004l1.935,0.232v-2.004L761.463,133.538z M766.012,135.681v5.315l-0.815-0.098v-10.512l4.86,0.583
		c0,1.488-0.071,2.463-0.217,2.927c-0.145,0.479-0.592,0.673-1.344,0.582l-0.973-0.116l-0.228-0.771l0.803,0.108
		c0.267,0.031,0.478,0.037,0.638,0.016c0.145-0.03,0.252-0.133,0.324-0.309c0.079-0.238,0.133-0.82,0.155-1.745l-3.205-0.385v3.636
		l4.08,0.49v0.732c-0.223,1.204-0.614,2.21-1.176,3.014c0.529,0.584,1.164,1.132,1.908,1.645l-0.433,0.681
		c-0.752-0.521-1.407-1.093-1.969-1.711c-0.526,0.552-1.146,0.974-1.858,1.264l-0.457-0.75c0.68-0.287,1.26-0.689,1.741-1.207
		c-0.77-1.029-1.284-2.146-1.549-3.354L766.012,135.681z M767.043,135.805c0.25,0.949,0.682,1.834,1.297,2.65
		c0.441-0.659,0.769-1.451,0.984-2.377L767.043,135.805z"/>
	<path fill="#231815" d="M776.285,131.297c-0.119,0.274-0.271,0.56-0.455,0.857l5.231,0.628v0.695
		c-0.77,0.797-1.704,1.44-2.809,1.932c1.359,0.739,2.871,1.292,4.535,1.661l-0.396,0.756c-1.895-0.443-3.588-1.127-5.075-2.05
		c-1.472,0.504-3.181,0.787-5.123,0.85l-0.396-0.863c1.736-0.032,3.264-0.232,4.584-0.603c-0.656-0.462-1.279-0.989-1.871-1.58
		c-0.473,0.367-0.973,0.68-1.5,0.936l-0.526-0.759c1.454-0.657,2.432-1.552,2.926-2.685L776.285,131.297z M777.426,136.654
		c0,0.432-0.041,0.883-0.121,1.354l4.226,0.507c-0.025,2.029-0.207,3.219-0.554,3.569c-0.352,0.358-0.95,0.485-1.801,0.384
		c-0.199-0.024-0.668-0.096-1.401-0.217l-0.218-0.805l1.416,0.229c0.714,0.077,1.164-0.021,1.357-0.293
		c0.184-0.267,0.291-0.998,0.324-2.193l-3.553-0.426c-0.089,0.285-0.218,0.569-0.386,0.854c-0.614,1.014-2.022,1.737-4.225,2.168
		l-0.574-0.776c1.976-0.338,3.275-0.911,3.898-1.716c0.168-0.228,0.293-0.44,0.373-0.639l-3.576-0.43v-0.78l3.815,0.458
		c0.097-0.421,0.146-0.87,0.146-1.351L777.426,136.654z M779.826,133.45l-4.586-0.551l-0.156,0.174
		c0.666,0.664,1.404,1.257,2.221,1.778C778.258,134.494,779.098,134.026,779.826,133.45z"/>
</g>
<g enable-background="new    ">
	<path fill="#231815" d="M629.326,210.059l4.354,0.522c-0.192-0.464-0.385-0.862-0.575-1.197l0.911-0.035
		c0.199,0.409,0.38,0.854,0.539,1.338l4.236,0.508v0.792l-1.908-0.229c-0.184,0.657-0.428,1.269-0.731,1.832l3.192,0.383v0.804
		l-10.584-1.271v-0.804l3.097,0.372c-0.168-0.645-0.39-1.311-0.66-1.999l-1.871-0.225V210.059L629.326,210.059z M637.797,215.551
		v5.353l-0.875-0.105v-0.552l-5.688-0.683v0.552l-0.877-0.104v-5.353L637.797,215.551z M631.234,216.803l5.688,0.683v-1.271
		l-5.688-0.683V216.803z M631.234,218.795l5.688,0.683v-1.248l-5.688-0.683V218.795z M632.109,211.185
		c0.209,0.576,0.412,1.242,0.61,1.993l2.595,0.312c0.334-0.584,0.569-1.195,0.707-1.835L632.109,211.185z"/>
	<path fill="#231815" d="M642.346,216.469c-0.416,0.391-0.924,0.809-1.524,1.257l-0.265-0.932c1.615-1.189,2.691-2.408,3.229-3.656
		l-2.953-0.354v-0.828l1.873,0.225c-0.199-0.552-0.439-1.101-0.719-1.646l0.828-0.142c0.278,0.618,0.506,1.201,0.684,1.75
		l-0.35,0.091l1.5,0.18v0.732c-0.313,0.834-0.791,1.641-1.439,2.419c0.656,0.486,1.252,1.022,1.789,1.606l-0.492,0.685
		c-0.418-0.506-0.854-0.966-1.309-1.381v5.076l-0.853-0.102V216.469z M647.637,213.24l0.84,0.101v2.292
		c-0.047,1.786-0.358,3.181-0.936,4.184c-0.584,0.938-1.516,1.602-2.797,1.993l-0.467-0.813c1.264-0.4,2.139-1.022,2.629-1.868
		c0.463-0.896,0.707-2.095,0.729-3.596L647.637,213.24L647.637,213.24z M650.637,211.92v6.636l-0.875-0.105v-5.808l-3.373-0.404
		v5.808l-0.852-0.103v-6.636L650.637,211.92z M649.232,222.083c-0.656-0.078-0.982-0.466-0.982-1.162v-2.676l0.84,0.101v2.496
		c0,0.288,0.131,0.448,0.396,0.479l0.742,0.09c0.168,0.02,0.293-0.029,0.372-0.147c0.104-0.147,0.173-0.592,0.203-1.332l0.806,0.349
		c-0.072,0.983-0.205,1.571-0.396,1.766c-0.184,0.161-0.461,0.22-0.828,0.176L649.232,222.083z"/>
	<path fill="#231815" d="M655.029,211.967l0.84,0.102v1.416l1.633,0.195v0.815l-1.633-0.195v1.393l1.775,0.213v0.84l-5.063-0.607
		v-0.84l0.695,0.083v-2.652l0.828,0.1v2.652l0.924,0.11L655.029,211.967L655.029,211.967z M654.332,217.703
		c-0.295,1.108-0.662,1.929-1.104,2.46l-0.635-0.629c0.439-0.547,0.769-1.288,0.984-2.222L654.332,217.703z M657.766,217.936
		c-0.528,2.617-2.063,4.192-4.606,4.727l-0.494-0.839c2.418-0.454,3.865-1.836,4.344-4.146L657.766,217.936z M655.006,216.896
		l0.826,0.1v3.132l-0.826-0.099V216.896z M660.201,216.728l0.84,0.101v2.124c-0.023,1.262-0.293,2.253-0.803,2.976
		c-0.498,0.652-1.306,1.107-2.426,1.366l-0.48-0.803c1.072-0.256,1.816-0.657,2.232-1.208c0.399-0.607,0.612-1.419,0.637-2.432
		V216.728L660.201,216.728z M657.836,212.783l5.641,0.677v0.816l-2.399-0.287c-0.031,0.436-0.08,0.87-0.144,1.302l2.111,0.253v5.7
		l-0.84-0.101v-4.896l-3.107-0.373v4.896l-0.828-0.099v-5.7l1.765,0.211c0.063-0.384,0.114-0.816,0.155-1.301l-2.354-0.282V212.783
		L657.836,212.783z M661.533,221.124c0.84,0.805,1.531,1.563,2.076,2.276l-0.638,0.56c-0.504-0.731-1.176-1.517-2.016-2.354
		L661.533,221.124z"/>
	<path fill="#231815" d="M666.957,216.698l0.828,0.1v1.824l1.332,0.16v0.779l-1.332-0.16v1.645c0.479-0.038,1.035-0.1,1.668-0.184
		v0.815c-0.688,0.102-1.244,0.171-1.668,0.208v2.604l-0.828-0.1v-2.437c-0.768,0.044-1.543,0.07-2.328,0.081l-0.107-0.865
		c0.832-0.004,1.644-0.026,2.437-0.067V219.3l-2.016-0.242l-0.183-0.789c0.354-0.686,0.676-1.555,0.974-2.606l-1.199-0.145v-0.841
		l1.416,0.17l0.348-1.554l0.816,0.218c-0.104,0.5-0.213,0.979-0.324,1.438l2.279,0.273v0.841l-2.496-0.3
		c-0.287,0.989-0.601,1.855-0.937,2.6l1.32,0.158V216.698L666.957,216.698z M669.621,215.29l1.885,0.226l0.287-1.585l0.852,0.187
		l-0.133,0.764c-0.055,0.306-0.104,0.552-0.143,0.738l2.916,0.351v0.84l-3.084-0.369l-0.313,1.342l3.695,0.443v0.828l-3.898-0.468
		c-0.129,0.464-0.28,0.954-0.456,1.469l3.827,0.46v0.719c-0.407,0.775-1.036,1.517-1.883,2.223c0.521,0.383,0.986,0.754,1.402,1.117
		l-0.479,0.675c-1.272-1.13-2.557-2.044-3.854-2.743l0.457-0.63c0.567,0.309,1.156,0.671,1.764,1.088
		c0.721-0.546,1.287-1.142,1.703-1.787l-4.021-0.482c0.271-0.808,0.496-1.545,0.673-2.211l-1.548-0.186v-0.828l1.753,0.21
		l0.311-1.343l-1.715-0.205v-0.843H669.621z"/>
	<path fill="#231815" d="M680.588,219.246v6.168l-0.791-0.095v-0.685l-1.295-0.155v0.912l-0.805-0.097v-4.884
		c-0.24,0.402-0.504,0.792-0.793,1.165l-0.433-0.748c0.912-1.282,1.513-2.803,1.802-4.56l-1.466-0.176v-0.84l4.093,0.491v0.84
		l-1.813-0.218c-0.176,0.979-0.412,1.851-0.707,2.615L680.588,219.246z M678.502,223.7l1.295,0.155v-3.912l-1.295-0.155V223.7z
		 M681.189,222.678l4.393,0.527v0.816l-4.393-0.527V222.678z M682.209,217.389l0.852,0.162l-0.526,2.961l2.543,0.306l0.602-3.853
		l-4.225-0.508v-0.815l5.16,0.619l-0.66,4.661l1.271,0.153c0,2.888-0.159,4.544-0.479,4.97c-0.344,0.398-1.035,0.536-2.076,0.411
		c-0.334-0.041-0.695-0.096-1.08-0.166l-0.237-0.869c0.526,0.111,0.897,0.181,1.114,0.207c0.92,0.11,1.474-0.02,1.656-0.39
		c0.191-0.385,0.287-1.538,0.287-3.458l-4.849-0.581L682.209,217.389z"/>
</g>
<g enable-background="new    ">
	<path fill="#231815" d="M589.582,281.469c0,1.043-0.324,1.87-0.971,2.479c-0.646,0.61-1.484,0.854-2.517,0.729
		c-0.996-0.118-1.807-0.561-2.43-1.321c-0.623-0.764-0.935-1.666-0.935-2.709v-1.518c0-1.039,0.312-1.867,0.935-2.482
		c0.623-0.617,1.434-0.865,2.43-0.746c1.031,0.123,1.869,0.568,2.517,1.336c0.646,0.768,0.971,1.672,0.971,2.715V281.469z
		 M588.428,279.802c0-0.78-0.211-1.446-0.633-1.997c-0.422-0.552-0.988-0.869-1.699-0.955c-0.672-0.08-1.209,0.105-1.608,0.558
		c-0.4,0.452-0.601,1.069-0.601,1.851v1.529c0,0.789,0.199,1.457,0.601,2.005c0.399,0.549,0.938,0.863,1.608,0.942
		c0.715,0.086,1.281-0.094,1.701-0.543c0.42-0.446,0.631-1.066,0.631-1.859V279.802z"/>
	<path fill="#231815" d="M591.246,285.173v-8.53l2.783,0.334c0.891,0.105,1.586,0.383,2.092,0.828
		c0.504,0.444,0.756,1.053,0.756,1.821c0,0.367-0.113,0.683-0.34,0.946c-0.229,0.264-0.527,0.449-0.902,0.557
		c0.56,0.146,1,0.439,1.326,0.887c0.326,0.445,0.49,0.943,0.49,1.494c0,0.781-0.254,1.348-0.763,1.698
		c-0.508,0.351-1.194,0.476-2.063,0.37L591.246,285.173z M592.4,280.407l1.869,0.225c0.43,0.052,0.778-0.024,1.049-0.229
		c0.27-0.202,0.403-0.516,0.403-0.938c0-0.461-0.146-0.822-0.438-1.087c-0.291-0.263-0.709-0.428-1.256-0.493l-1.629-0.195
		L592.4,280.407L592.4,280.407z M592.4,281.311v3.1l2.227,0.267c0.527,0.063,0.936-0.017,1.227-0.241
		c0.291-0.226,0.438-0.576,0.438-1.053c0-0.473-0.148-0.871-0.445-1.195s-0.696-0.526-1.2-0.606l-0.076-0.011L592.4,281.311z"/>
	<path fill="#231815" d="M603.422,284.482c0-0.387-0.139-0.728-0.416-1.021s-0.766-0.576-1.465-0.844
		c-0.867-0.318-1.545-0.717-2.031-1.192c-0.486-0.477-0.729-1.03-0.729-1.663c0-0.669,0.26-1.193,0.783-1.576
		c0.524-0.383,1.204-0.523,2.041-0.424c0.897,0.107,1.612,0.448,2.146,1.022c0.533,0.573,0.793,1.198,0.777,1.877l-0.019,0.032
		l-1.102-0.131c0-0.484-0.17-0.905-0.508-1.263c-0.339-0.356-0.771-0.567-1.298-0.631c-0.541-0.063-0.952,0.017-1.239,0.244
		s-0.431,0.55-0.431,0.968c0,0.371,0.156,0.699,0.472,0.985c0.313,0.284,0.826,0.563,1.533,0.837
		c0.858,0.326,1.514,0.732,1.963,1.22c0.446,0.487,0.674,1.05,0.674,1.687c0,0.688-0.271,1.209-0.813,1.562
		c-0.541,0.354-1.246,0.478-2.116,0.373c-0.824-0.099-1.554-0.417-2.185-0.953s-0.936-1.19-0.916-1.962l0.012-0.033l1.103,0.133
		c0,0.535,0.203,0.973,0.608,1.313c0.406,0.34,0.865,0.54,1.378,0.602c0.547,0.065,0.979-0.006,1.297-0.213
		C603.262,285.221,603.422,284.904,603.422,284.482z"/>
</g>
<g enable-background="new    ">
	<path fill="#231815" d="M527.486,341.523l0.012,0.037c0.016,0.803-0.266,1.438-0.844,1.908c-0.578,0.471-1.342,0.647-2.291,0.533
		c-0.965-0.115-1.752-0.552-2.359-1.309c-0.606-0.756-0.91-1.66-0.91-2.711v-1.519c0-1.051,0.304-1.882,0.91-2.495
		c0.607-0.611,1.396-0.859,2.359-0.744c0.965,0.115,1.731,0.465,2.303,1.047s0.848,1.295,0.832,2.142l-0.012,0.034l-1.107-0.133
		c0-0.599-0.176-1.092-0.527-1.481c-0.351-0.39-0.848-0.623-1.487-0.7c-0.646-0.076-1.158,0.121-1.541,0.596
		c-0.383,0.474-0.574,1.095-0.574,1.863v1.529c0,0.777,0.191,1.449,0.574,2.016c0.383,0.565,0.896,0.887,1.541,0.963
		c0.641,0.077,1.137-0.035,1.487-0.34c0.352-0.304,0.527-0.76,0.527-1.369L527.486,341.523z"/>
	<path fill="#231815" d="M528.998,344.438v-8.531l2.684,0.322c1.113,0.133,2.009,0.582,2.687,1.351
		c0.678,0.767,1.018,1.692,1.018,2.778v1.166c0,1.09-0.34,1.936-1.018,2.535c-0.678,0.601-1.572,0.834-2.687,0.7L528.998,344.438z
		 M530.152,336.952v6.721l1.528,0.185c0.789,0.094,1.41-0.092,1.865-0.557s0.685-1.104,0.685-1.916v-1.178
		c0-0.805-0.229-1.494-0.685-2.068s-1.076-0.908-1.865-1.002L530.152,336.952z"/>
	<path fill="#231815" d="M543.576,346.186l-1.156-0.139l-4.107-7.009l-0.032,0.008v6.504l-1.156-0.139v-8.531l1.156,0.14
		l4.106,7.002l0.033-0.008v-6.498l1.156,0.139V346.186z"/>
</g>
<g id="Group-6" transform="translate(294.000000, 264.000000)">
	
		<path id="Path-19-Copy-5_1_" opacity="0.8937" fill="none" stroke="#333333" stroke-width="0.9315" enable-background="new    " d="
		M21.777-177.602l-45.526,44.026"/>
	<polygon id="Path-8_1_" fill="#333333" points="-27.223,-135.29 -18.723,-134.227 -27.223,-130.311 	"/>
	<ellipse id="Oval-2_1_" fill="#333333" cx="22.926" cy="-178.453" rx="1.621" ry="1.621"/>
</g>
<g id="Group-6_1_" transform="translate(294.000000, 264.000000)">
	
		<path id="Path-19-Copy-5_2_" opacity="0.8937" fill="none" stroke="#333333" stroke-width="0.9315" enable-background="new    " d="
		M444.384-120.37l-43.925,42.495"/>
	<polygon id="Path-8_2_" fill="#333333" points="399.04,-80.69 407.54,-79.627 399.04,-75.711 	"/>
	<ellipse id="Oval-2_2_" fill="#333333" cx="445.533" cy="-121.221" rx="1.621" ry="1.621"/>
</g>
<g id="Group-6_4_" transform="translate(294.000000, 264.000000)">
	
		<path id="Path-19-Copy-5_5_" opacity="0.8937" fill="none" stroke="#333333" stroke-width="0.9315" enable-background="new    " d="
		M230.376,87.8l-43.925,42.495"/>
	<polygon id="Path-8_5_" fill="#333333" points="185.032,127.48 193.532,128.542 185.032,132.458 	"/>
	<ellipse id="Oval-2_5_" fill="#333333" cx="231.525" cy="86.949" rx="1.621" ry="1.621"/>
</g>
<g id="Group-6_2_" transform="translate(294.000000, 264.000000)">
	
		<path id="Path-19-Copy-5_3_" opacity="0.8937" fill="none" stroke="#333333" stroke-width="0.9315" enable-background="new    " d="
		M356.849-36.437l-21.281,20.581"/>
	<polygon id="Path-8_3_" fill="#333333" points="332.875,-18.345 341.375,-17.282 332.875,-13.366 	"/>
	<ellipse id="Oval-2_3_" fill="#333333" cx="356.266" cy="-36.037" rx="1.621" ry="1.621"/>
</g>
<g id="Group-6_3_" transform="translate(294.000000, 264.000000)">
	
		<path id="Path-19-Copy-5_4_" opacity="0.8937" fill="none" stroke="#333333" stroke-width="0.9315" enable-background="new    " d="
		M293.928,26.082l-21.281,20.581"/>
	<polygon id="Path-8_4_" fill="#333333" points="272.313,42.366 280.813,43.43 272.313,47.346 	"/>
	<ellipse id="Oval-2_4_" fill="#333333" cx="293.345" cy="26.48" rx="1.621" ry="1.621"/>
</g>
<g id="底座_1_" transform="translate(0.000000, 25.000000)">
	<polygon id="Rectangle-6_4_" fill="#F5F5F6" points="381.275,385.884 461.422,395.448 439.729,416.865 359.589,407.808 	"/>
	<polygon id="Rectangle-6_3_" fill="#ECECEA" points="359.842,425.382 439.992,435.149 439.721,416.264 359.58,407.2 	"/>
	<polygon id="Line_1_" fill="#CCCCCC" points="360.841,425.243 360.587,407.685 359.587,407.7 359.854,426.142 439.993,435.175 
		439.711,415.605 438.711,415.62 438.977,434.05 	"/>
	<path id="Rectangle-6_2_" fill="#CCCCCC" d="M381.642,386.938l-19.896,20.006l77.606,8.557l19.91-19.504L381.642,386.938z
		 M381.275,385.884l80.144,9.347l-21.694,21.314l-80.137-8.845L381.275,385.884z"/>
	<path id="Combined-Shape_1_" fill="#989898" d="M453.569,394.316l7.85,0.912l-4.46,4.38l-1.236-0.148l3.544-3.471l-6.6-0.771
		L453.569,394.316z M388.239,386.695l-6.964-0.811l-4.201,4.229l1.262,0.148l3.306-3.322l5.696,0.662L388.239,386.695z
		 M432.115,415.707l7.608,0.838l4.392-4.313l-1.275-0.15l-3.483,3.412l-6.323-0.697L432.115,415.707z M366.364,408.45l-6.777-0.748
		l4.854-4.886l1.256,0.146l-3.949,3.976l5.523,0.608L366.364,408.45z"/>
	<polygon id="Rectangle-6_1_" fill="#DDDCDC" points="461.679,413.228 461.419,395.229 439.725,416.545 439.988,434.829 	"/>
	<polygon id="Path-13_1_" fill="#CCCCCC" points="439.97,433.542 439.991,435.042 461.679,413.228 461.419,395.229 460.434,396.244 
		460.673,412.838 	"/>
</g>
<path id="Path-33_2_" fill="none" stroke="#999999" stroke-width="1.09" d="M398.076,427.87l28.52,3.277"/>
<path id="Path-Copy-5_1_" fill="#DDDDDE" stroke="#999999" d="M428.919,400.335l-31.178-3.586c-1.612-0.187-2.904,0.95-2.881,2.532
	l0.29,20.078c0.021,1.582,1.349,2.793,2.961,2.979l31.176,3.586c1.612,0.185,2.909-0.725,2.886-2.307l-0.289-20.077
	C431.859,401.957,430.529,400.521,428.919,400.335z"/>
<polygon id="Rectangle-13_2_" fill="#F6F6F6" stroke="#040000" stroke-width="0.7848" points="407.132,426.899 412.04,427.401 
	412.098,431.427 407.188,430.831 "/>
<path id="Path_6_" fill="#FFFFFF" stroke="#040000" stroke-width="0.5962" d="M424.765,403.693l-31.178-3.586
	c-1.605-0.184-2.903,0.953-2.88,2.535l0.29,20.079c0.022,1.582,1.354,2.789,2.959,2.977l31.178,3.588
	c1.612,0.184,2.908-0.724,2.886-2.306l-0.29-20.08C427.707,405.318,426.378,403.88,424.765,403.693z"/>
<path id="Path-33_1_" fill="none" stroke="#333333" stroke-width="1.09" d="M395.299,429.782l28.52,3.275"/>
<g enable-background="new    ">
	<path fill="#D6282C" d="M405.563,415.908c0.013,0.867-0.246,1.557-0.778,2.064c-0.531,0.51-1.229,0.711-2.088,0.608
		c-0.832-0.101-1.513-0.466-2.04-1.103c-0.529-0.635-0.8-1.387-0.813-2.254l-0.019-1.266c-0.014-0.866,0.236-1.557,0.749-2.07
		c0.512-0.514,1.184-0.722,2.016-0.621c0.86,0.103,1.564,0.474,2.112,1.111c0.549,0.641,0.829,1.395,0.842,2.264L405.563,415.908z
		 M404.58,414.52c-0.01-0.651-0.193-1.207-0.552-1.666c-0.359-0.459-0.834-0.723-1.428-0.793c-0.562-0.067-1.006,0.088-1.335,0.465
		c-0.328,0.377-0.486,0.891-0.478,1.541l0.019,1.274c0.01,0.656,0.185,1.214,0.523,1.67c0.342,0.457,0.792,0.718,1.354,0.785
		c0.597,0.071,1.067-0.08,1.41-0.452c0.347-0.373,0.514-0.891,0.504-1.551L404.58,414.52z"/>
	<path fill="#D6282C" d="M411.749,413.221l-2.348-0.281l0.092,6.353l-0.964-0.115l-0.092-6.352l-2.318-0.276l-0.011-0.757
		l5.63,0.672L411.749,413.221z"/>
	<path fill="#D6282C" d="M417.82,413.943l-2.349-0.279l0.093,6.352L414.6,419.9l-0.092-6.352l-2.317-0.275l-0.012-0.758l5.63,0.672
		L417.82,413.943z"/>
</g>
<g enable-background="new    ">
	<path fill="#231815" d="M393.702,446.324c0,1.043-0.322,1.869-0.97,2.479c-0.646,0.609-1.485,0.854-2.517,0.729
		c-0.997-0.119-1.807-0.562-2.429-1.322c-0.624-0.763-0.937-1.665-0.937-2.708v-1.518c0-1.039,0.313-1.867,0.937-2.483
		c0.622-0.617,1.432-0.865,2.429-0.746c1.03,0.124,1.869,0.569,2.517,1.336c0.646,0.769,0.97,1.673,0.97,2.716V446.324z
		 M392.549,444.656c0-0.781-0.212-1.447-0.634-1.998s-0.987-0.868-1.698-0.954c-0.672-0.08-1.208,0.104-1.607,0.558
		c-0.4,0.453-0.603,1.068-0.603,1.851v1.528c0,0.789,0.201,1.458,0.603,2.007c0.4,0.548,0.937,0.861,1.607,0.941
		c0.715,0.086,1.281-0.095,1.701-0.543c0.42-0.447,0.631-1.066,0.631-1.859V444.656z"/>
	<path fill="#231815" d="M401.173,443.102l-2.813-0.338v7.623l-1.154-0.139v-7.623l-2.776-0.333v-0.908l6.743,0.811V443.102
		L401.173,443.102z"/>
	<path fill="#231815" d="M408.444,443.974l-2.813-0.337v7.623l-1.154-0.139v-7.623l-2.776-0.333v-0.908l6.744,0.81V443.974z"/>
</g>
<g>
	<path fill="#333333" d="M190.653,147.601l-0.443,2.2l2.101,0.257l-0.023,0.504c-0.191,1.873-0.642,3.469-1.351,4.789
		c0.427,0.422,0.86,0.889,1.3,1.4l-0.67,0.594c-0.297-0.39-0.654-0.804-1.071-1.24c-0.619,0.897-1.367,1.637-2.243,2.221
		l-0.569-0.757c0.893-0.565,1.617-1.276,2.173-2.133c-0.51-0.521-1.075-1.072-1.695-1.654c0.335-1.012,0.649-2.106,0.939-3.285
		l-0.992-0.121l0.039-0.827l1.149,0.141c0.121-0.54,0.27-1.297,0.447-2.272L190.653,147.601z M191.384,150.776l-1.357-0.166
		c-0.292,1.226-0.589,2.239-0.889,3.038c0.219,0.195,0.596,0.547,1.133,1.054C190.838,153.614,191.209,152.306,191.384,150.776z
		 M194.729,149.172l3.015,0.368l0.05-1.091l0.9,0.11l-0.05,1.091l1.123,0.137l-0.036,0.767l-1.123-0.137l-0.17,3.656l-1.932-0.236
		l-0.049,1.055l3.341,0.408l-0.037,0.791l-2.467-0.301c0.499,0.945,1.333,1.838,2.501,2.681l-0.674,0.653
		c-1.192-1.078-2.027-2.217-2.505-3.417l-0.196-0.024l-0.165,3.548l-0.94-0.115l0.165-3.548l-0.117-0.014
		c-0.677,1.187-1.695,2.1-3.055,2.737l-0.473-0.829c1.256-0.465,2.201-1.13,2.836-1.992l-2.519-0.308l0.037-0.791l3.328,0.407
		l0.049-1.055l-1.932-0.236l0.17-3.656l-1.175-0.144l0.036-0.767l1.175,0.144l0.05-1.091l0.888,0.108L194.729,149.172z
		 M197.572,153.22l0.051-1.091l-3.015-0.368l-0.051,1.091L197.572,153.22z M194.641,151.042l3.015,0.368l0.051-1.103l-3.015-0.368
		L194.641,151.042z"/>
	<path fill="#333333" d="M207.458,156.308c-0.253,1.496-0.697,2.471-1.331,2.924c-0.717,0.571-2.25,0.797-4.599,0.679l-0.33-0.811
		c2.084,0.142,3.47-0.018,4.157-0.481c0.616-0.447,1.005-1.28,1.167-2.498L207.458,156.308z M204.451,152.348
		c-0.682,0.543-1.518,1.032-2.51,1.465l-0.595-0.748c1.007-0.391,1.869-0.849,2.584-1.372L204.451,152.348z M202.221,149.219
		c0.807,0.339,1.516,0.707,2.127,1.104l-0.528,0.634c-0.662-0.45-1.357-0.833-2.087-1.146L202.221,149.219z M211.148,155.421
		l-0.165,3.56l-0.94-0.115l0.128-2.757l-6.513-0.796l-0.132,2.853l-0.939-0.115l0.169-3.656L211.148,155.421z M207.359,149.667
		c-0.156,0.334-0.281,0.577-0.375,0.726l5.26,0.643l-0.024,0.515c-0.184,0.581-0.42,1.138-0.708,1.674l-0.889-0.362
		c0.226-0.326,0.432-0.722,0.62-1.19l-2.219-0.271c-0.065,0.281-0.156,0.535-0.271,0.762c0.636,1.002,1.951,1.801,3.945,2.399
		l-0.375,0.725c-1.897-0.593-3.225-1.414-3.981-2.463c-0.176,0.211-0.36,0.394-0.55,0.547c-0.679,0.48-1.748,0.787-3.207,0.922
		l-0.317-0.81c1.3-0.099,2.243-0.337,2.83-0.715c0.497-0.349,0.84-0.841,1.027-1.478l-1.671-0.204
		c-0.385,0.387-0.834,0.73-1.347,1.029l-0.517-0.739c0.87-0.463,1.486-1.108,1.848-1.932L207.359,149.667z M207.656,158.538
		c1.669,0.614,3.19,1.294,4.565,2.04l-0.542,0.657c-1.475-0.839-2.987-1.539-4.536-2.097L207.656,158.538z"/>
	<path fill="#333333" d="M219.174,151.036l0.966,0.118l-0.172,3.704l4.842,0.591l-0.039,0.839l-4.842-0.591l-0.238,5.13l5.952,0.727
		l-0.039,0.839l-11.617-1.419l0.039-0.839l4.699,0.574L219.174,151.036z"/>
	<path fill="#333333" d="M228.777,156.538c-0.487,0.502-0.981,0.952-1.48,1.35l-0.258-0.959c1.459-1.261,2.548-2.774,3.27-4.543
		l0.869,0.492c-0.392,0.916-0.859,1.739-1.4,2.469l-0.373,8.02l-0.94-0.115L228.777,156.538z M231.295,154.06l2.545,0.311
		l0.463-1.499l0.91,0.195l-0.433,1.418l3.942,0.481l-0.039,0.839l-4.177-0.51c-0.201,0.563-0.37,1.008-0.508,1.336l5.156,0.63
		l-0.039,0.827l-5.456-0.667c-0.167,0.381-0.403,0.863-0.71,1.444l5.365,0.655l-0.034,0.743c-0.596,0.771-1.51,1.503-2.741,2.197
		c0.579,0.36,1.155,0.756,1.73,1.188l-0.57,0.678c-1.538-1.192-3.136-2.183-4.797-2.973l0.527-0.611
		c0.796,0.387,1.564,0.794,2.306,1.222c1.039-0.507,1.884-1.096,2.537-1.763l-5.586-0.683c0.393-0.731,0.751-1.468,1.074-2.208
		l-2.179-0.267l0.039-0.827l2.466,0.302c0.168-0.43,0.334-0.876,0.495-1.338l-2.323-0.284L231.295,154.06z"/>
</g>
</svg>
